<svg id="Layer_1" data-name="Layer 1" xmlns="http://www.w3.org/2000/svg" xmlns:xlink="http://www.w3.org/1999/xlink" viewBox="0 0 1027.24 643.4"><defs><style>.cls-1{fill:#fde9de;}.cls-2{fill:#9f415e;}.cls-3{fill:#fedfab;}.cls-4,.cls-9{fill:#fff;}.cls-5{fill:url(#Безымянный_градиент_90);}.cls-17,.cls-22,.cls-23,.cls-24,.cls-25,.cls-37,.cls-41,.cls-42,.cls-6{fill:none;}.cls-6,.cls-9{stroke:#9bd5e4;}.cls-22,.cls-23,.cls-24,.cls-25,.cls-37,.cls-41,.cls-42,.cls-49,.cls-50,.cls-51,.cls-52,.cls-53,.cls-54,.cls-6,.cls-62,.cls-9{stroke-miterlimit:10;}.cls-7{fill:#fed16b;}.cls-8{fill:#bd1639;}.cls-10{fill:#ebd716;}.cls-11{fill:#152f40;}.cls-12{fill:#cfaa3b;}.cls-13{fill:#ffe72d;}.cls-14{fill:#fcc949;}.cls-15{fill:#b5944d;}.cls-16{fill:#ffe74f;}.cls-18{fill:url(#Безымянный_градиент_90-2);}.cls-19{fill:url(#Безымянный_градиент_90-3);}.cls-20{fill:url(#Безымянный_градиент_90-4);}.cls-21{fill:#92d0cf;}.cls-22{stroke:url(#Безымянный_градиент_90-5);}.cls-23{stroke:url(#Безымянный_градиент_90-6);}.cls-24{stroke:url(#Безымянный_градиент_90-7);}.cls-25{stroke:url(#Безымянный_градиент_90-8);}.cls-26{fill:url(#Безымянный_градиент_90-9);}.cls-27{fill:url(#Безымянный_градиент_90-10);}.cls-28{fill:#c0a391;}.cls-29{fill:#30140d;}.cls-30{fill:#aa5217;}.cls-31{fill:#364899;}.cls-32{fill:#e29448;}.cls-33{fill:#c1d0ec;}.cls-34{fill:#392f16;}.cls-35{fill:#282521;}.cls-36{fill:#282522;}.cls-37,.cls-42{stroke:#30140d;}.cls-38{fill:#304899;}.cls-39{fill:#facf8f;}.cls-40{fill:#efe63d;}.cls-41{stroke:#3c2713;}.cls-42{stroke-width:0.5px;}.cls-43{fill:#319097;}.cls-44{fill:url(#Безымянный_градиент_90-11);}.cls-45{fill:url(#Безымянный_градиент_70);}.cls-46{fill:#c4e6f5;}.cls-47{fill:#2d2863;}.cls-48{fill:#d05349;}.cls-49,.cls-50,.cls-51,.cls-52,.cls-53,.cls-54{stroke:#3a4797;}.cls-49{fill:url(#Безымянный_градиент_90-12);}.cls-50{fill:url(#Безымянный_градиент_90-13);}.cls-51{fill:url(#Безымянный_градиент_90-14);}.cls-52{fill:url(#Безымянный_градиент_90-15);}.cls-53{fill:url(#Безымянный_градиент_90-16);}.cls-54{fill:url(#Безымянный_градиент_90-17);}.cls-55{fill:url(#Безымянный_градиент_139);}.cls-56{fill:#f4952a;}.cls-57,.cls-62{fill:#30140e;}.cls-58{fill:#dddc00;}.cls-59{fill:#228ebc;}.cls-60{fill:#144071;}.cls-61{fill:#7dcad3;}.cls-62{stroke:#422620;}.cls-63{fill:#39586d;}.cls-64{fill:#95c354;}</style><linearGradient id="Безымянный_градиент_90" x1="191.19" y1="291.27" x2="338.5" y2="291.27" gradientUnits="userSpaceOnUse"><stop offset="0" stop-color="#57c1d7"/><stop offset="0.02" stop-color="#54c1d8"/><stop offset="0.15" stop-color="#49bfda"/><stop offset="0.28" stop-color="#45bedb"/><stop offset="0.67" stop-color="#63c3d3"/><stop offset="1" stop-color="#19a7dd"/></linearGradient><linearGradient id="Безымянный_градиент_90-2" x1="768.46" y1="87.35" x2="779.36" y2="87.35" xlink:href="#Безымянный_градиент_90"/><linearGradient id="Безымянный_градиент_90-3" x1="809.82" y1="87.35" x2="820.72" y2="87.35" xlink:href="#Безымянный_градиент_90"/><linearGradient id="Безымянный_градиент_90-4" x1="852.83" y1="87.35" x2="863.73" y2="87.35" xlink:href="#Безымянный_градиент_90"/><linearGradient id="Безымянный_градиент_90-5" x1="506.27" y1="133.66" x2="775.62" y2="133.66" xlink:href="#Безымянный_градиент_90"/><linearGradient id="Безымянный_градиент_90-6" x1="773.6" y1="126.69" x2="775.62" y2="126.69" xlink:href="#Безымянный_градиент_90"/><linearGradient id="Безымянный_градиент_90-7" x1="814.77" y1="156.12" x2="1027.06" y2="156.12" xlink:href="#Безымянный_градиент_90"/><linearGradient id="Безымянный_градиент_90-8" x1="857.78" y1="118.65" x2="1027.06" y2="118.65" xlink:href="#Безымянный_градиент_90"/><linearGradient id="Безымянный_градиент_90-9" x1="848.92" y1="45.78" x2="958.56" y2="45.78" gradientTransform="matrix(-1, 0, 0, 1, 1719.01, 0)" xlink:href="#Безымянный_градиент_90"/><linearGradient id="Безымянный_градиент_90-10" x1="190.13" y1="28.64" x2="283.14" y2="28.64" xlink:href="#Безымянный_градиент_90"/><linearGradient id="Безымянный_градиент_90-11" x1="508.22" y1="485.55" x2="505.16" y2="406.92" xlink:href="#Безымянный_градиент_90"/><linearGradient id="Безымянный_градиент_70" x1="482.91" y1="160.55" x2="543.17" y2="388.3" gradientUnits="userSpaceOnUse"><stop offset="0" stop-color="#6ec6d3"/><stop offset="0.52" stop-color="#71c6d3"/><stop offset="1" stop-color="#62c3d3"/></linearGradient><linearGradient id="Безымянный_градиент_90-12" x1="524.03" y1="304.8" x2="644.07" y2="304.8" xlink:href="#Безымянный_градиент_90"/><linearGradient id="Безымянный_градиент_90-13" x1="540.28" y1="305.23" x2="620.9" y2="305.23" xlink:href="#Безымянный_градиент_90"/><linearGradient id="Безымянный_градиент_90-14" x1="565.93" y1="304.16" x2="605.04" y2="304.16" xlink:href="#Безымянный_градиент_90"/><linearGradient id="Безымянный_градиент_90-15" x1="531.39" y1="271.52" x2="624.65" y2="271.52" xlink:href="#Безымянный_градиент_90"/><linearGradient id="Безымянный_градиент_90-16" x1="524.03" y1="298.39" x2="641.25" y2="298.39" xlink:href="#Безымянный_градиент_90"/><linearGradient id="Безымянный_градиент_90-17" x1="533.96" y1="328.78" x2="641.25" y2="328.78" xlink:href="#Безымянный_градиент_90"/><linearGradient id="Безымянный_градиент_139" x1="504.91" y1="301.5" x2="658.48" y2="301.5" gradientUnits="userSpaceOnUse"><stop offset="0" stop-color="#ffef27"/><stop offset="0.04" stop-color="#ffea22"/><stop offset="0.21" stop-color="#fed70f"/><stop offset="0.38" stop-color="#fecc04"/><stop offset="0.57" stop-color="#fec800"/><stop offset="1" stop-color="#f19034"/></linearGradient></defs><rect class="cls-1" x="1.06" width="1022.96" height="643.4"/><path class="cls-2" d="M-.19,575.06V386.65c2.13-.1,4.19-.14,6.17-.1,20.82-1.2,27.1-12.36,23.26-30.47-7.89-27,2-43.15,23.86-51.88,9-3.54,17.65-2.72,25.56-2,23.47,6.57,49.79,10.67,79.59,11.77C182.51,310,195,300.3,199.9,287c17.14-38.25,55.39-21.09,88.2,0,57.33,22.08,136.43,36.53,221.28,49a181.62,181.62,0,0,0,45.11-2.86l34.7-17.22c18.28-5.58,33.36-9.22,42.9-11.66,17.12-5,33.71-4.92,49.79-3.91,4.35-16.53,29.85-5.53,63.13,22.39,26.88,12.28,46.19-.87,73.33-6.82,33.24-2.91,13.69,18,42.49,40.22,20.3,14.9,19.47,26.84,6.12,33.1L844.49,402.9c-4.08,9.28,1.42,18.59,16.34,27.92l34.72,9.6c11.51,9.65,15.13,19.84,9.25,30.69l-19.41,13.35c-15.74,5.9-17.65,17.82-6.18,35.58,17.87,14.93,21.21,31.88,16.34,49.38C880.2,601,850.23,617.19,818.34,614.8c-56.62,5.12-117.17-15.5-179.13-45.38-52.32-22.7-109.82-25.18-146.59-4.84l-37,31.72c-22.3,20.66-45.94,29.36-73.65,9.24-15.89-12.81-44.72-24.09-73.83-29.66-41.56-2.3-81.36,2-114.86,29.66-20.51,21.54-40.93,25.1-61.28,9.26-11.75-15.76-19-23.47-33-25.94C49.76,602.5,9.37,606.16-.19,575.06Z" transform="translate(0.19 0)"/><polygon class="cls-3" points="342.09 385.04 194.2 386.46 193.39 380.6 201.87 374.94 200.06 362.7 191.38 360.87 191.38 352.11 338.69 352.21 338.69 359.58 338.92 366.42 338.92 371.51 340.68 376.15 343.71 379.79 345.12 381 342.09 385.04"/><path class="cls-4" d="M337.33,312.37V268.46L219.6,270.08l-19.93,4.58s-3.77,19.66-3.77,20.47,9.42,16.17,9.42,16.17Z" transform="translate(0.19 0)"/><path class="cls-5" d="M338.4,266.58H250.58c-16,.32-41.39-2-55.49,7-4.63,7.45-3.91,18.57-3.77,26.94,1.16,6.93,8.08,12.49,14,15.43,8.5.15,59.3-.1,69,0,14.45-.07,50,.06,64.11,0v-6.81c-16.94-.12-52.28.07-69,.54-12.62-.3-38.48-.85-51.18-1.08-13.86.8-18.69-6.67-17.78-19.93-1.33-23.61,65.59-13.12,82.43-16.17,12.9,1,39.26,1.11,52.26.54C340,274.35,338.05,269.38,338.4,266.58Z" transform="translate(0.19 0)"/><line class="cls-6" x1="227.87" y1="285.44" x2="251.31" y2="285.44"/><line class="cls-6" x1="279.32" y1="285.44" x2="337.51" y2="285.44"/><path class="cls-7" d="M203.71,316c-7.81-1-12.66,1.73-16.3,8.77-2,8.7-2.43,20.2,3.78,27.34H337.33c2.92,2.3.25-36.12,1.08-36.16Z" transform="translate(0.19 0)"/><path class="cls-4" d="M338.5,322H294.22c-10.7.61-13.72,4-13.13,14.75,1,3.71,3.4,5.73,6.47,7.68H338.5Z" transform="translate(0.19 0)"/><path class="cls-8" d="M221.76,352c-6.34-6.69-7.18-26.51-2.56-34.21-2.66-3.8,18.17-.9,18.72-1.76-8.33,10-7.24,26.51,1.48,36Z" transform="translate(0.19 0)"/><path class="cls-8" d="M257.59,352c-9.63-9.09-9.65-24.77-3.91-36H272.4c-9.94,11.44-4.92,24.36,1.62,36Z" transform="translate(0.19 0)"/><line class="cls-4" x1="291.99" y1="332.04" x2="303.3" y2="332.04"/><line class="cls-9" x1="312.19" y1="332.04" x2="338.69" y2="332.04"/><polygon class="cls-10" points="315.69 360.87 315.69 332.04 331.59 332.04 331.59 360.87 323.64 351.98 315.69 360.87"/><path class="cls-4" d="M193.4,360.59a17.31,17.31,0,0,1,1,20.41h70.44c6-.18,18.67,1.63,22.1-5.1,2-4.8,2.88-11.94-2-15.31L281,359.22Z" transform="translate(0.19 0)"/><line class="cls-9" x1="211.37" y1="366.42" x2="236.63" y2="366.42"/><polygon class="cls-10" points="218.48 386.45 218.48 366.42 229.52 366.42 229.52 386.45 224 380.27 218.48 386.45"/><path class="cls-11" d="M103.5,180.78c18.24-6,5.54-30.86-15-21,8-7.36,6.46-8.2,3-17.6-2-8.86-1.46-20.92,2.21-29.27-17.29,6.41-21,29.43-15.59,45.24-9.25-28-22.92-60.91-51.75-73.5,25.72,27.32-6.29,110.67,48,101.53-2,11.57-10.67,14.49-21.28,13.37,9.82,9,25.63,25.17,39.89,22.8-10.15-8.59-10.5-23.94-8.26-36.06C87.6,178.11,99.94,166.76,103.5,180.78Z" transform="translate(0.19 0)"/><path class="cls-12" d="M249.48,119.49c6.47-12.63,85.07-15.12,65.2,9.61C307.9,134.43,243.47,134.22,249.48,119.49Z" transform="translate(0.19 0)"/><path class="cls-13" d="M253,265.56c19.77,5.67,43.88,5.57,63.65.11-.42-9.11,4.59-29.59-4.55-34.29-13.07,1.68-21.57-11.89-22.86-23.49-.73-7,4-13.41,7.68-18.84l-27.37-.7c5,7.85,10.11,16.41,8.82,26.16-1.52,9.44-11.73,17.13-21.06,17.11C247.82,231.51,252.2,259,253,265.56Z" transform="translate(0.19 0)"/><polygon class="cls-14" points="283.03 205.32 289.43 205.06 290.77 199.81 292.99 195.37 297.12 189.05 282.36 188.67 270.8 188.31 269.74 188.35 273.02 193.67 275.92 199.28 278.06 205.52 283.03 205.32"/><path class="cls-14" d="M267.74,235.8c12,3.43,31.35,6.17,40.42-4.38.44-2.17-1.29-3.25-2.76-4.37a11.25,11.25,0,0,0-5.31,1.16c-9.2,4.15-21.47,2.81-30.74-.54-3.42-1.07-6.67-.39-7.71,3.42C261.9,233.36,266,235,267.74,235.8Z" transform="translate(0.19 0)"/><path class="cls-15" d="M272.9,241.25l20.73.94a7.21,7.21,0,0,0,2.25,3.45l3.35.92.41,10.42c-3.61,0-5.63.75-5.77,4.65l-22.28-.17c.74-3.28-3.07-4.13-5.5-4.91,0-1.27-.39-9.52-.42-10.59A8.41,8.41,0,0,0,272.9,241.25Z" transform="translate(0.19 0)"/><path class="cls-13" d="M249.25,123.92c1.59,22.45-3.48,52,20.31,64.43,46.32,13,49-26.77,47.75-61.66-8.14,8.46-23.09,4.71-33.77,5.24C272.29,130.39,258.19,132,249.25,123.92Z" transform="translate(0.19 0)"/><path class="cls-13" d="M318.4,136.37a9,9,0,0,0,7.06-6.18c4.07-5.3,12.45-10.42,17.32-3,15.51,20.5-1.75,38.93-23,43.28-4.29.94-4.32,6.78.58,5.64,1-1.66,1.78-1.35,3-.12-1.37,4.51-6.74,3.2-9.52.73a27.21,27.21,0,0,1,.42-7.26c5.73-5,16.31-5.32,22.18-11.14,8-7,12.1-28.54-2.24-29.62-3,1.3-4.86,5-7.15,7C325,137.22,316.82,141.77,318.4,136.37Z" transform="translate(0.19 0)"/><path class="cls-13" d="M249,138.64a9,9,0,0,1-7.19-6c-4.17-5.22-12.65-10.17-17.38-2.7-15.1,20.8,2.53,38.89,23.88,42.82,4.31.86,4.45,6.69-.47,5.65-1.06-1.64-1.81-1.31-3-.06,1.46,4.48,6.8,3.07,9.53.54a27.16,27.16,0,0,0-.56-7.25c-5.83-4.94-16.41-5-22.4-10.7-8.11-6.86-12.66-28.29,1.66-29.65,3,1.23,5,4.87,7.28,6.86C242.42,139.62,250.71,144,249,138.64Z" transform="translate(0.19 0)"/><path class="cls-16" d="M437.53,0h57.28a57.56,57.56,0,0,1-57.28,57.29A57.56,57.56,0,0,1,380.24,0Z" transform="translate(0.19 0)"/><line class="cls-17" x1="385.83" y1="4.86" x2="313.75" y2="4.86"/><line class="cls-17" x1="0.19" y1="520.6" x2="0.19" y2="509.59"/><line class="cls-17" x1="0.19" y1="273" x2="0.19" y2="260.09"/><line class="cls-17" x1="1023.15" y1="571.79" x2="1023.15" y2="546.56"/><path class="cls-18" d="M768.87,80.67c-3.18,18.1,13.41,17.53,10,0Z" transform="translate(0.19 0)"/><path class="cls-19" d="M810.23,80.67c-3.18,18.1,13.4,17.53,10,0Z" transform="translate(0.19 0)"/><path class="cls-20" d="M853.24,80.67c-3.18,18.1,13.4,17.53,10,0Z" transform="translate(0.19 0)"/><path class="cls-21" d="M734,81.39c6.23-1.79,171.16,5.2,170.19-5.89,16.17-14.23,1.36-34.65-15.84-38.68.74-27.47-37-29.54-57.1-25.79-6.75,3-15.12,8.52-18.79,15.11-14.16.46-33.84-2.93-44.94,7.73-6.11,4.43-8.32,12.78-8.84,19.9C743.85,50.9,715,66.48,734,81.39Z" transform="translate(0.19 0)"/><polyline class="cls-22" points="775.12 159.34 775.12 169.3 775.12 178.55 775.12 187.41 775.12 192.52 773.92 197.05 771.26 198.38 759.75 198.38 732.87 198.38 721.08 198.38 711.93 198.38 708.39 198.38 705.29 196.61 704.11 192.62 704.11 159.34 704.11 122.96 704.11 106.43 704.11 89.34 704.11 74.45 702.38 71.3 698.64 68.94 638.62 68.94 549.74 68.94 512.6 68.94 508.74 71.1 506.77 74.25 506.77 77.6 506.77 161.52"/><line class="cls-23" x1="775.12" y1="159.34" x2="774.1" y2="94.03"/><path class="cls-24" d="M815.27,94V212.56a5.16,5.16,0,0,0,5.15,5.15h206.64" transform="translate(0.19 0)"/><path class="cls-25" d="M858.28,94v43.59a5.16,5.16,0,0,0,5.16,5.16h163.62" transform="translate(0.19 0)"/><line class="cls-17" x1="1027.24" y1="137.93" x2="1027.24" y2="118.41"/><path class="cls-26" d="M870.09,12.68C853,54.56,816.28,76.13,760.45,78.87,812.63,73.09,847.51,49.18,870.09,12.68Z" transform="translate(0.19 0)"/><path class="cls-21" d="M287.2,13.07A22.54,22.54,0,0,0,283.82,0H212.87a21.48,21.48,0,0,0-1.55,2.38c-14.17.46-33.84-2.92-44.95,7.74-6.1,4.42-8.32,12.77-8.84,19.89-14.84-2.86-43.7,12.72-24.68,27.63,6.23-1.8,171.17,5.2,170.19-5.89C319.22,37.52,304.4,17.1,287.2,13.07Zm-97.07,44c44.26-5,73.85-25.5,93-56.85C268.61,36.19,237.49,54.72,190.13,57.07Z" transform="translate(0.19 0)"/><path class="cls-21" d="M283.14.22c-14.53,36-45.65,54.5-93,56.85C234.39,52.1,264,31.57,283.14.22Z" transform="translate(0.19 0)"/><line class="cls-17" x1="437.17" y1="134.38" x2="437.17" y2="114.86"/><path class="cls-27" d="M283.14.22c-14.53,36-45.65,54.5-93,56.85C234.39,52.1,264,31.57,283.14.22Z" transform="translate(0.19 0)"/><polygon class="cls-28" points="840.81 487.79 845.66 588.61 849.16 588.61 854.01 484.07 840.81 487.79"/><polygon class="cls-28" points="915.41 479.25 920.26 580.08 923.76 580.08 928.61 475.53 915.41 479.25"/><polygon class="cls-28" points="863.11 475.1 867.96 575.92 871.46 575.92 876.31 471.38 863.11 475.1"/><polygon class="cls-4" points="951.05 484.07 922.01 625.65 923.57 627.58 926.25 627.58 928.26 627.58 956.41 484.07 951.05 484.07"/><polygon class="cls-4" points="981.65 619.89 951.05 484.07 956.41 484.07 988.36 619.89 986.95 621.45 984.56 621.45 982.32 621.45 981.65 619.89"/><path class="cls-4" d="M794.64,490.92c.29.89,24.12,119.14,24.12,119.14l5.07-1.49L798.51,485.85Z" transform="translate(0.19 0)"/><polygon class="cls-4" points="792.74 486.15 751.34 617.88 751.34 620.05 752.83 621.45 754.61 621.45 757 621.45 795.93 495.13 798.7 486.15 792.74 486.15"/><polygon class="cls-28" points="878.03 512.34 882.88 613.16 886.38 613.16 891.23 508.62 878.03 512.34"/><path class="cls-28" d="M836,498.18c16.68,20.09,25.57,24.43,52.8,25.47,35.62,0,61.24-29.39,63.81-63,2-26.71-3.47-43.64-26.21-59-6.7-4.4-17.45-5.37-25.09-3.33Z" transform="translate(0.19 0)"/><path class="cls-3" d="M855.22,354c.87,1.08,1.84,9.18.36,13-.9,2.31-3.58,5.22-4.65,8.1-1.16,3.14,4.7.3,4.53,2.38-.33,4,.5,6.92.48,9.42-.08,7.21,11,2.24,16,1.78a76.53,76.53,0,0,1-2.26,7.57c6-.28,18.82-1.64,24-5-2.94-5.19-2.16-13-2-18.77l-1.14-17.76L877,349.91l-14.9-1.14Z" transform="translate(0.19 0)"/><path class="cls-17" d="M882,375.59c3.25.05,5.14-3.59,5.94-6.31" transform="translate(0.19 0)"/><path class="cls-29" d="M859,357.17c-2.78,4.1,4.36,1.6,6.1,1.23a28,28,0,0,1,5.49.36C867.2,355.07,863.19,356.68,859,357.17Z" transform="translate(0.19 0)"/><path class="cls-17" d="M861.6,366.84" transform="translate(0.19 0)"/><path class="cls-30" d="M855.42,380.65c2.32.37,5.25-.34,7.5-.54-.48,3-3.69,3.93-6.18,4.65C854.68,385.06,855.49,381.92,855.42,380.65Z" transform="translate(0.19 0)"/><path class="cls-17" d="M861.47,365.68" transform="translate(0.19 0)"/><path class="cls-17" d="M861.6,365.81" transform="translate(0.19 0)"/><path class="cls-17" d="M867.77,389.56c2.31-.58,7.51-2.05,8.91-4.19" transform="translate(0.19 0)"/><path class="cls-17" d="M862.64,365.76" transform="translate(0.19 0)"/><path class="cls-17" d="M861.63,368.46a1.67,1.67,0,0,0,1.84-1" transform="translate(0.19 0)"/><path class="cls-31" d="M839.61,416.15c3.89-5.15,11-7.9,16.38-11.17,4.26-2.07,9.17-6.24,12.78-9.27l14.52.56,15.41-4.47.89,1.66c7.73,4.81,26.11,10.51,30,18.15-8,5.21-13.33,15.59-16.46,24.35.16,9.66.77,21.34,1.34,31-11.63,3.61-46.12,3.13-58.53,3l-6.85-2.53C852.61,450.47,856.34,427.3,839.61,416.15Z" transform="translate(0.19 0)"/><polygon class="cls-4" points="874.67 396.74 879.14 401.62 881.22 405.28 884.61 403.19 888 401.36 891.54 399.87 895.48 398.38 898.65 396.74 900.77 395.63 902.22 395.16 899.71 391.29 897.7 388.71 895.8 387 892.34 388.77 888.45 390.54 884.46 392.2 881.39 393.63 877.09 395.16 874.67 396.74"/><polygon class="cls-4" points="866.85 393.75 868.94 394.76 870.85 395.59 872.12 395.87 872.53 395.87 872.93 395.87 873.69 395.87 871.31 398.23 869.4 400.4 868.01 402.57 866.85 404.36 866.39 405.2 863.43 404.01 860.36 402.96 861.93 401.74 863.38 400.29 864.48 398.61 865.4 397.49 866.27 396.04 866.85 393.75"/><path class="cls-32" d="M896.5,441.62c11.42-.13,9.8-16.76,9.39-24.8l-8.12.45Z" transform="translate(0.19 0)"/><path class="cls-4" d="M890.71,423.76c-1.06-4.28-4.77-7.55-7.62-10.66.54,5.27-1.71,12.54,2.43,16.67.93.73,2.13,2,3.37,1,.75,3.33-3.18,4.66-5.8,5,2.73,3.26,8.66,6.76,12.89,4.72-3.89-2.24-4.21-7.28-3.38-11.25,1.7-2,6.14.24,2.36,1.94,4.51,2.24,5.06-6.11.61-6.28.08-2.57-.22-7.13-.2-9.72C892.79,417,891.14,420.69,890.71,423.76Z" transform="translate(0.19 0)"/><path class="cls-4" d="M872.52,403.87c-2.82,1.42-.12,4.45,2.22,3.2C875.92,405.27,874.63,403.45,872.52,403.87Z" transform="translate(0.19 0)"/><path class="cls-4" d="M873,423.32c-2.82,1.41-.12,4.45,2.22,3.2C876.38,424.71,875.09,422.9,873,423.32Z" transform="translate(0.19 0)"/><path class="cls-4" d="M872.52,446.79c-2.82,1.41-.12,4.44,2.22,3.2C875.92,448.18,874.63,446.37,872.52,446.79Z" transform="translate(0.19 0)"/><path class="cls-33" d="M753.26,469.68h245c3.11,4.38,5,11.67,1.71,16.47H753.26c-2.23-2.66-5.08-7-4.46-10.76C749.84,472.64,750.27,470.66,753.26,469.68Z" transform="translate(0.19 0)"/><path class="cls-4" d="M839.61,416.15c-4.69,17.79-12,37-13.18,55.41,1.57,4.77,6.69,4,10.5,5.13,5.71.27,16.79,2.05,21.89-1.34,2-2.56,5.79-3.79,8.83-4.24v-4.69c-5.47-2.91-14.62-2.9-20.61-4,.46-4.24,2.75-12.06,5-15.67C852.73,435.76,849.17,422.57,839.61,416.15Z" transform="translate(0.19 0)"/><path class="cls-4" d="M929.64,411.61c6.05,15.14,7,34.59,2.68,50.34-1.28,8.95-2.15,10.71-11.17,13-8.12,1.62-19.58,2.42-27.7,4l-4.62.89c-1.09-2.4-5.3-8.78-4.2-11.62-.11-2.37,7.64-3.4,9-4a79.15,79.15,0,0,1,15.68-3.79l4.75-.89c-.32-5.84-.81-17.74-.92-23.54C916.21,427.45,922.18,417,929.64,411.61Z" transform="translate(0.19 0)"/><path class="cls-3" d="M867.65,466.42a12.75,12.75,0,0,1,15.3,3.27,122.91,122.91,0,0,0-15.3,1.42Z" transform="translate(0.19 0)"/><path class="cls-3" d="M888.26,478.72c-8.72,2.57-20.12,3.92-28.84,1.1-5.2-6.23,8.31-8.75,12.36-9.27C888,470.58,882.05,465.66,888.26,478.72Z" transform="translate(0.19 0)"/><polygon class="cls-34" points="833.3 600.17 831.85 602.91 827.72 606.22 823.97 608.04 819.92 610.01 817.29 612.21 815.84 615.7 816.4 618.76 817.2 620.41 821.43 621.47 829.88 619.8 846.78 613.81 855.99 610.26 855.16 603.99 852.78 595.03 851.71 586.22 833.56 589.67 833.3 600.17"/><polygon class="cls-34" points="784.45 598.18 781.89 600.06 776.59 601.26 772.32 601.26 767.71 601.26 764.29 602.11 761.39 604.67 760.53 607.75 760.53 609.63 763.95 612.5 772.49 614.75 790.77 616.8 800.85 617.65 802.9 611.5 804.72 602.18 807.68 593.57 789.4 588.61 784.45 598.18"/><path class="cls-35" d="M917.08,486.15c.25,13.43,2,23.88-13.27,29.45-9.32.25-19-2.47-28.64-5.34-7.41-2.21-14.76-4.51-21.84-5.59-12-5.05-13.43-4.67-20.64,6.37-9.85,29.88-20.73,63.25-27,94.1l-32.79-8.5c8.08-23.22,19.68-50.3,28.84-73.15,2.94-9.06,9-28.47,12.14-37.34Z" transform="translate(0.19 0)"/><path class="cls-36" d="M822.39,605.14l34-2.79c-3.83-27.8-20.72-61-11.9-89.13,5-5,35.87.38,42.08.57L869.9,492.11l-43.28,2.79C816.77,510.16,822.45,587.26,822.39,605.14Z" transform="translate(0.19 0)"/><path class="cls-17" d="M872.37,396.18a278.44,278.44,0,0,0-4.19,69.48" transform="translate(0.19 0)"/><path class="cls-17" d="M862.7,365.51" transform="translate(0.19 0)"/><path class="cls-17" d="M860.51,366.82" transform="translate(0.19 0)"/><path class="cls-17" d="M860.18,367" transform="translate(0.19 0)"/><path class="cls-17" d="M862.92,365.84" transform="translate(0.19 0)"/><path class="cls-17" d="M863.69,363.86" transform="translate(0.19 0)"/><path class="cls-29" d="M861.41,334.78c-3.76,3.39-7.66,6.16-9.33,10.71l28.47-11C874.22,332.38,866.46,331.49,861.41,334.78Z" transform="translate(0.19 0)"/><path class="cls-29" d="M880.55,334.45a11.61,11.61,0,0,1,5.57,5.27c9.85-6.93,19.62,5.34,16.84,14.2-2.69,8.55-8.49,33.8-11.15,29.78-12.85-19.41-4.89-.91-3.83-19.53.47-8.28-6.35-3.76-6.41.84-.11,7.64-4.58.24-8-8.87-2.88-7.58-9.17-9.47-16.18-3.12-.56.5-1.67,7.62-4.44,7.19a13.94,13.94,0,0,1-2.33-11.32,11.85,11.85,0,0,1,1.49-3.4" transform="translate(0.19 0)"/><path class="cls-17" d="M861.71,366.73" transform="translate(0.19 0)"/><path class="cls-17" d="M859.28,367.52" transform="translate(0.19 0)"/><path class="cls-17" d="M858.91,367.66" transform="translate(0.19 0)"/><path class="cls-17" d="M861.85,367.1" transform="translate(0.19 0)"/><path class="cls-17" d="M863,365.35" transform="translate(0.19 0)"/><circle class="cls-29" cx="863.09" cy="364.76" r="2.52"/><path class="cls-37" d="M861.13,363.75c1-1.75,4.34-1.65,6.73.32" transform="translate(0.19 0)"/><polygon class="cls-38" points="87.55 495.1 89.24 490.7 109.31 452.14 152.77 463.31 165.87 472.21 167.54 497.24 148.5 502.88 131.87 508.4 118.63 503.89 107.92 499.95 97.9 497.47 87.55 495.1"/><path class="cls-4" d="M152.77,479c-2.85,15.22-3.33,14.93,12,15.61,10.87.37,23.47-7,29.82-15.61,4.82-4.44-2.52-12-4.6-15.91C183.77,451,176,433,169,421.4c-8-11.66-8.66,14.08-12,19.21,2.61,9.66,5,29.26,15.92,33.93C168.29,475.33,157.41,477.9,152.77,479Z" transform="translate(0.19 0)"/><path class="cls-39" d="M114.54,411.59c4.2-4.83,3.48-9.35,3.4-15.21h19c-1,7,2.07,11.09,8,14.41l-2.78,4.71L128,418.4C124.52,417.49,115,416.16,114.54,411.59Z" transform="translate(0.19 0)"/><path class="cls-38" d="M105.63,414.19l45.74-1.8h2c2.41,1,9.06,3.3,11.11,4.8-.81,4.41-4.51,20.38-3.3,24.62,6.13,48.76-69.41,104.4-48.94,41.44,8.45-26,9.68-21.38-11.34-40.5-6.1-5.56-3.39-19.14-12.38-21.35C92.05,418.2,101,415.13,105.63,414.19Z" transform="translate(0.19 0)"/><path class="cls-32" d="M148.31,455.17c10-.11,8.62-14.74,8.25-21.8l-7.13.39Z" transform="translate(0.19 0)"/><path class="cls-4" d="M142.1,441.21c-.95-3.82-4.26-6.74-6.8-9.51.48,4.7-1.52,11.18,2.16,14.87.84.65,1.91,1.82,3,.9.67,3-2.83,4.15-5.17,4.46,2.44,2.91,7.72,6,11.5,4.21-3.47-2-3.75-6.5-3-10,1.51-1.81,5.47.22,2.1,1.73,4,2,4.52-5.44.55-5.59.06-2.3-.2-6.37-.19-8.67C144,435.22,142.48,438.47,142.1,441.21Z" transform="translate(0.19 0)"/><polygon class="cls-4" points="113.44 406.08 119.53 409.89 126.53 412.49 130.34 413.69 128.19 417.29 124.67 421.9 121.89 425.1 114.32 420.69 109.32 416.6 105.12 413.49 103.52 412.49 113.44 406.08"/><polygon class="cls-4" points="143.09 405.8 137.97 409.6 134.09 411.6 129.68 413.2 126.88 413.4 131.88 419.31 133.89 422.41 134.99 423.61 141.29 419.31 147.93 414.7 151.1 411.4 143.09 405.8"/><path class="cls-17" d="M129.73,414.39c.54,10.21-.79,23.1,2,33" transform="translate(0.19 0)"/><path class="cls-39" d="M142.18,376.26c12.27-12.07,9.32,5.42,4.51,11.81C140.3,387.19,142.46,380.7,142.18,376.26Z" transform="translate(0.19 0)"/><path class="cls-39" d="M110.73,376.26c.88-3.1-3.88-3.72-6-4.41-4,.73-2.09,5.41-1.4,8.11s3.18,5.66,4.4,8.11c.76.33,3.51-1.15,4.21-1.4Z" transform="translate(0.19 0)"/><path class="cls-3" d="M109.55,362.64c-2.42,13.92-2.58,31.7,12,38.63,17.27,8.39,23.21-14.45,23.41-27.42C146.76,350.32,123.42,350.84,109.55,362.64Z" transform="translate(0.19 0)"/><path class="cls-29" d="M108.49,375.47c-5.67-9.69-3.8.91-4.69-15.56-1.23-22.72,17.66-26.84,34.36-18.72,7.77,3.78,10.42,11.66,11.25,18.8-.36,3.75,2.56,11.79-3.7,15.82-2.1-9.25-8.26-15-15.6-20.47-3.08,2.75-7,5.53-11.13,6.17-2.81.58-6.63,2.16-9.5,2A69.56,69.56,0,0,1,108.49,375.47Z" transform="translate(0.19 0)"/><path class="cls-29" d="M130.83,365c-3.14,4.64,4.92,1.82,6.88,1.4a31.38,31.38,0,0,1,6.21.4C140.07,362.66,135.54,364.49,130.83,365Z" transform="translate(0.19 0)"/><path class="cls-29" d="M123.44,364.91c2.92,4.57-4.57,1.79-6.39,1.38a27.16,27.16,0,0,0-5.77.4C114.86,362.57,119.07,364.37,123.44,364.91Z" transform="translate(0.19 0)"/><path class="cls-17" d="M119.32,375.6" transform="translate(0.19 0)"/><path class="cls-17" d="M119,375.49" transform="translate(0.19 0)"/><path class="cls-17" d="M121.73,376.91" transform="translate(0.19 0)"/><path class="cls-17" d="M117,376.47" transform="translate(0.19 0)"/><path class="cls-17" d="M120.31,376.14" transform="translate(0.19 0)"/><path class="cls-17" d="M118.74,374.65" transform="translate(0.19 0)"/><path class="cls-40" d="M155.29,534.3c5.84,1.93,12.84,5,18.42,7.44H183c3.46-4.23,5.73-10.45,5.26-15.81-.46-6.12-2.57-9.91-8.55-12.7h-4.94l-4.39,1.65c-3.82,1.6-9.35,3.32-13.16,5C157.11,524.18,155.72,530,155.29,534.3Z" transform="translate(0.19 0)"/><path class="cls-40" d="M176.24,513.85c5.49,8.43,8,22.28-3.58,27.42" transform="translate(0.19 0)"/><polyline class="cls-41" points="161.62 530.99 162.82 526.1 162.82 521.56"/><polyline class="cls-41" points="164.69 532.42 166.44 526.61 165.87 520.68"/><polyline class="cls-41" points="167.54 533.18 169.73 526.61 168.64 519.48"/><path class="cls-40" d="M98.65,537.82c-5.45,1.13-12,3.14-17.3,4.74l-8.42-.87c-2.74-4-4.24-9.63-3.33-14.24,1-5.28,3.22-8.37,8.87-10.24l4.46.46,3.81,1.85c3.3,1.75,8.14,3.76,11.43,5.54C97.92,528.85,98.66,534,98.65,537.82Z" transform="translate(0.19 0)"/><polyline class="cls-41" points="84.56 536.82 83.06 530.04 84.89 523.07"/><polyline class="cls-41" points="88.13 535.81 86.95 529.85 88.09 524.01"/><polyline class="cls-41" points="91.04 534.7 90.5 529.68 91.11 525.19"/><path class="cls-36" d="M201.85,487.27c5,5.19,11.83,17.42,4.35,22.87-24.79,14.07-72.14,24.29-99.39,30.78A31,31,0,0,1,95.16,542c-.7-8.51.19-22.11.36-30.62,27.06-6.81,69.53-15.61,95.69-23.59C194.2,487.72,199.3,485.14,201.85,487.27Z" transform="translate(0.19 0)"/><path class="cls-36" d="M56,481.25c-5.24,4.84-12.66,16.5-5.6,22.3,23.64,15.31,69.75,28.1,96.26,36.07a30.77,30.77,0,0,0,11.42,1.73c1.19-8.35,1.09-21.82,1.4-30.22-26.29-8.28-67.67-19.39-93-28.76C63.54,482.13,58.65,479.3,56,481.25Z" transform="translate(0.19 0)"/><line class="cls-17" x1="131.87" y1="505.29" x2="131.87" y2="492.65"/><path class="cls-30" d="M120.31,391.12c4.26,1.79,11.29,2.53,14.87-.45C134.2,397.59,122,398,120.31,391.12Z" transform="translate(0.19 0)"/><path class="cls-42" d="M130.45,384c.75,1,.38,3.49-1.07,2.28-1.17.06-1.48,1.13-2.64.1-1-.21-3.09,1.53-2.83-.61l0-1.08" transform="translate(0.19 0)"/><path class="cls-4" d="M88.52,421.4c-10.43,16.61-19,38.68-25.52,57-5.94,21,6.35,14.68,20.11,11.71,7.44-2,22.18-3.84,29.13-6.9,1.8-5,1.09-11.22-1.21-15.92-1.75-4.27-17-.25-20.11-.3L102,440C100.19,433.11,96.45,423.07,88.52,421.4Z" transform="translate(0.19 0)"/><polygon class="cls-43" points="90.81 438.51 92.51 466.86 107.92 464.93 111.22 467.33 117.23 473.34 112.42 483.25 106.33 485.22 127.58 491.35 151.56 484.45 152.96 479.04 161.96 476.94 165.57 476.04 164.07 438.51 130.32 447.82 90.81 438.51"/><path class="cls-3" d="M118.84,464.93c33.52-18.39,27.45,14.55-5.1,15.22-.57-4.87-.75-12.94-6-15.22C114.87,460.81,133.05,447.3,118.84,464.93Z" transform="translate(0.19 0)"/><path class="cls-3" d="M152.58,480.06c-6.72-4.37-22-8.05-6.81,1.69-6.9-.94-29.32.64-17.22,10.81,7,1.49,15.67-.15,22.65-.81Z" transform="translate(0.19 0)"/><path class="cls-4" d="M127.53,422.39c-2.82,1.41-.12,4.45,2.21,3.2C130.93,423.78,129.64,422,127.53,422.39Z" transform="translate(0.19 0)"/><path class="cls-4" d="M127.53,441.33c-2.82,1.41-.12,4.45,2.21,3.2C130.93,442.72,129.64,440.91,127.53,441.33Z" transform="translate(0.19 0)"/><path class="cls-4" d="M127.53,494.86c-2.82,1.41-.12,4.44,2.21,3.2C130.93,496.25,129.64,494.44,127.53,494.86Z" transform="translate(0.19 0)"/><path class="cls-17" d="M538.15,238c8.88,8.62,8.94,23.54,2.33,33.4" transform="translate(0.19 0)"/><path class="cls-44" d="M347.71,385.08l-5.4,8.51-6.71,9.66-10,13.14-9.75,12.85-17.49,19.55-12,13.43-5.34,6-2.34,5.06L278,483.82v7.83l1.77,3.27,3.93,2.72,12.59,2.53H726l6.27-8.52c4.32-.53,7.68-2.71,5.91-13.83l-57-98.08Z" transform="translate(0.19 0)"/><path class="cls-45" d="M392.58,394.12c-16.06-1.55-50.44,8-53.68-15.69-1.49-31.52-.26-66.5-.64-98.1.08-18-.06-42.74,0-60.71,1.05-15.69-4-38.2,8.56-50.48,10.41-10.76,22.93-10.3,36.61-9.77H623.12c22,1.79,59.23-8.48,66.71,20.4-.84,65.55,1.67,132.93-1,198.36-2.86,8.45-10.8,13.57-19.49,14.4C657.59,395.4,413,394.23,392.58,394.12Z" transform="translate(0.19 0)"/><polygon class="cls-46" points="402.04 381.63 375.96 382.02 368.81 381.63 364.86 380.8 359.46 379.31 357.56 378.05 354.17 373.52 352.52 368.64 351.93 358.78 351.93 348.11 351.93 337.44 351.93 323.67 351.93 302.98 351.93 287.41 351.93 268.75 351.93 252.79 351.93 237.15 351.93 219.55 351.93 212.87 352.56 208.96 354.2 202.93 356.56 198.94 359.83 195.35 364.73 191.8 369.45 189.32 373.08 187.91 375.98 187.26 393.6 187.26 415.11 187.26 441.25 187.26 474.48 187.26 498.99 187.26 522.13 187.26 549.09 187.26 585.04 187.26 614.72 187.26 637.6 187.26 646.59 187.26 652.85 187.26 660.2 188.75 664.01 189.97 667.28 191.68 673 197.06 676.27 204.15 676.27 217.84 676.27 235.92 676.27 248.14 676.27 260.53 676.27 272.26 676.27 291.65 676.27 304.19 676.27 320.65 676.27 337.92 676.27 353.57 676.27 361.58 675.36 368.39 672.28 373.77 667.92 377.53 663.59 378.99 657.39 380.32 625.32 382.02 402.04 381.63"/><rect class="cls-47" x="367.24" y="203.59" width="117.91" height="166.56" rx="9.89"/><path class="cls-48" d="M511.91,361.57h16.74a3.52,3.52,0,0,0,3.52-3.55l-.75-101.15a3.53,3.53,0,0,0-3.53-3.5h-16a3.53,3.53,0,0,0-3.52,3.52V358.05A3.52,3.52,0,0,0,511.91,361.57Z" transform="translate(0.19 0)"/><path class="cls-48" d="M543.81,361.57h16.73a3.53,3.53,0,0,0,3.53-3.54l-.76-116.69a3.52,3.52,0,0,0-3.53-3.5h-16a3.52,3.52,0,0,0-3.53,3.52V358.05A3.52,3.52,0,0,0,543.81,361.57Z" transform="translate(0.19 0)"/><path class="cls-48" d="M579.23,361.57H596a3.53,3.53,0,0,0,3.53-3.54l-.77-123.47a3.51,3.51,0,0,0-3.52-3.5h-16a3.53,3.53,0,0,0-3.53,3.52V358.05A3.52,3.52,0,0,0,579.23,361.57Z" transform="translate(0.19 0)"/><path class="cls-48" d="M616.27,361.57H633a3.52,3.52,0,0,0,3.52-3.54l-.76-130.55a3.52,3.52,0,0,0-3.53-3.5h-16a3.52,3.52,0,0,0-3.53,3.52V358.05A3.52,3.52,0,0,0,616.27,361.57Z" transform="translate(0.19 0)"/><path class="cls-49" d="M524.13,299.12c5-66.09,112.57-66.6,119.8-1.57,3,39.45-41.87,70.46-78.52,61.25C541.25,353,522.45,323.19,524.13,299.12Z" transform="translate(0.19 0)"/><path class="cls-50" d="M612.57,350.72c18.83-36,5.52-89.44-37.75-100.47a3.6,3.6,0,0,0-2.57.34c-6.71,3.59-11.82,10.65-16,16.59-10.62,15.47-17.61,34-15.66,52.8a3.54,3.54,0,0,0,.07.47c4.91,22.38,19.31,38.39,43.75,39.86" transform="translate(0.19 0)"/><path class="cls-51" d="M599.27,357c13.59-36.5,2-77.84-22.42-106.54a3.48,3.48,0,0,0-5.88.93c-3.77,8.72-3.62,20-4.68,29-2.11,33.66,4.85,52.67,25.1,78.77" transform="translate(0.19 0)"/><path class="cls-52" d="M531.39,275.72c28,9.68,69.51,5,93.26-13.31" transform="translate(0.19 0)"/><path class="cls-53" d="M524,303.66c35.22,12.17,87.37,6.23,117.22-16.72" transform="translate(0.19 0)"/><path class="cls-54" d="M534,333.61c32.24,11.14,80,5.7,107.29-15.31" transform="translate(0.19 0)"/><path class="cls-55" d="M506.42,306.86l10.27-7.2a3.52,3.52,0,0,1,4.93.87c8.13,11.72,16,26.13,22.64,38.31.06.1.12.2.19.3,1.2,1.73,2.61,4.12,4.53,5.42a3.52,3.52,0,0,0,4.81-.93c9.57-13.29,16.39-31.56,25.42-45.15a3.62,3.62,0,0,1,1.66-1.33c11.54-4.71,19.67,7.11,26.15,16.41a3.53,3.53,0,0,0,6-.42c6.32-12.44,15.26-27.25,20.32-39.7a3.5,3.5,0,0,0-1.82-4.51l-3.15-1.42a3.53,3.53,0,0,1-.94-5.81l20.94-19.34a3.53,3.53,0,0,1,5.88,2.08l4.16,28.11a3.54,3.54,0,0,1-4.47,3.91l-5.73-1.66a3.54,3.54,0,0,0-4.24,2.07c-8.69,21.12-16.23,47.26-31.56,64.25a3.47,3.47,0,0,1-4.35.67c-5.11-3.13-10.52-15.73-15.31-22.85a3.53,3.53,0,0,0-6,.22c-5.57,9.55-14.79,25.51-18.65,32.8a3.3,3.3,0,0,1-.67.9c-9.1,8.79-21,12.83-31,2.94l-.21-.22c-10.36-11.61-22.88-30-30.93-44.1A3.51,3.51,0,0,1,506.42,306.86Z" transform="translate(0.19 0)"/><polygon class="cls-4" points="569.73 201.76 569.73 205.89 569.73 208.25 569.73 210.32 570.46 212.09 571.79 213.86 574.45 215.19 580.78 215.19 595.7 215.19 616.96 215.19 645.15 215.19 653.71 215.19 659.43 215.19 662.71 215.19 664.04 214.3 665.51 212.53 666.55 210.47 666.55 207.81 666.55 204.12 666.55 201.76 665.81 199.32 664.63 197.48 662.56 195.85 649.43 195.85 626.99 195.85 609.72 195.85 595.41 195.85 579.47 195.85 574.01 195.85 572.24 196.74 570.98 197.55 570.1 198.81 569.73 201.76"/><path class="cls-56" d="M579.8,203.16c2.56-7.31,3-6.4,6.11,0,.7,0,4.9,0,5.51,0,2.34,1.25-3.88,4-4.24,4.83.29.65,2.21,3.88,2,4.62-1.15,1.76-5-2.55-6-3-1.58.75-4.52,5.21-6,2.06,3.13-5.12-.27-5.32-3.84-8C572,201.47,579.28,203.56,579.8,203.16Z" transform="translate(0.19 0)"/><path class="cls-56" d="M600.61,203.16c2.55-7.31,3-6.4,6.1,0,.7,0,4.9,0,5.51,0,2.34,1.25-3.88,4-4.23,4.83.28.65,2.2,3.88,2,4.62-1.15,1.76-5-2.55-6-3-1.58.75-4.52,5.21-6,2.06,3.13-5.12-.27-5.32-3.84-8C592.82,201.47,600.08,203.56,600.61,203.16Z" transform="translate(0.19 0)"/><path class="cls-56" d="M621.42,203.16c2.55-7.31,3-6.4,6.1,0,.7,0,4.9,0,5.51,0,2.34,1.25-3.88,4-4.23,4.83.28.65,2.21,3.88,2,4.62-1.15,1.76-5-2.55-6-3-1.58.75-4.52,5.21-6,2.06,3.13-5.12-.27-5.32-3.84-8C613.63,201.47,620.89,203.56,621.42,203.16Z" transform="translate(0.19 0)"/><path class="cls-56" d="M642,203.16c2.56-7.31,3-6.4,6.1,0,.7,0,4.91,0,5.51,0,2.35,1.25-3.87,4-4.23,4.83.29.65,2.21,3.88,2,4.62-1.16,1.76-5-2.55-6-3-1.58.75-4.53,5.21-6,2.06,3.12-5.12-.27-5.32-3.84-8C634.24,201.47,641.5,203.56,642,203.16Z" transform="translate(0.19 0)"/><path class="cls-56" d="M659.8,200c3.94-11.31,4.65-9.89,9.42,0,1.08,0,7.58,0,8.52,0,3.62,1.92-6,6.22-6.54,7.45.44,1,3.41,6,3,7.14-1.79,2.72-7.76-3.94-9.28-4.56-2.44,1.16-7,8.06-9.27,3.19,4.84-7.91-.41-8.22-5.93-12.31C647.77,197.33,659,200.56,659.8,200Z" transform="translate(0.19 0)"/><path class="cls-11" d="M664.22,191.41c-15.43-5-4.69-26.11,12.69-17.73-6.72-6.22-5.46-6.94-2.55-14.89,1.64-7.5,1.23-17.7-1.87-24.76,14.62,5.42,17.74,24.89,13.18,38.27,7.83-23.7,19.39-51.54,43.79-62.18-21.76,23.11,5.32,93.63-40.64,85.89,1.73,9.8,9,12.27,18,11.32-8.31,7.61-21.69,21.3-33.75,19.29,8.58-7.27,8.88-20.26,7-30.51C677.67,189.16,667.23,179.55,664.22,191.41Z" transform="translate(0.19 0)"/><path class="cls-3" d="M603,406.07c3.67-2.69,3.75-8.41,3.68-12.58h8.73c-.16,4.37.15,10.27,4.51,12.58Z" transform="translate(0.19 0)"/><path class="cls-4" d="M585,420.51c1.36-3.08,1.75-7.9,4.06-9.87,2.1-2.93,36.59-1.06,39.53-1.55,5.34.94,5.95,4.21,7.11,11.42C637.06,422.26,583.61,422.25,585,420.51Z" transform="translate(0.19 0)"/><path class="cls-38" d="M593.46,421.53c.41-1.36-1-4.27-1.63-5.44a31.82,31.82,0,0,0-2.79-5.45c1.32-.76,5.11-1.54,6.62-1.81a44.31,44.31,0,0,0,7.32-3.49c4.18,2.3,12.39,1.42,16.92.2a24.55,24.55,0,0,0,7.64,3.41,12.13,12.13,0,0,1,3.6.95,81.17,81.17,0,0,0-2.56,10.1s0,1.57-.1,1.53S593.46,421.53,593.46,421.53Z" transform="translate(0.19 0)"/><path class="cls-4" d="M620.26,405.34c-4.76,1.46-13.33,2.55-17.61-.35a7.13,7.13,0,0,0,2.36-3.44c3.37.6,9.59,1.39,12.6-.3a12.22,12.22,0,0,0,2.9,4.09" transform="translate(0.19 0)"/><path class="cls-29" d="M603,391.32c-3.78-6.46-6.87-14.73-3.47-21.95a9.67,9.67,0,0,1,3.47-.59l.95-1.18c5.71-3.63,14-1.38,19,2.66,2.45,2.94,1.67,7,1.08,10.41-1.42,5-2.91,10.92-6.79,14.58C612,397.84,605.11,397.56,603,391.32Z" transform="translate(0.19 0)"/><path class="cls-3" d="M498,407.26c4.37-3.2,4.46-10,4.38-15,2.39,0,8.05,0,10.38,0-.19,5.19.17,12.21,5.36,15Z" transform="translate(0.19 0)"/><path class="cls-4" d="M482.76,417.16c1.32-2.3,1.7-5.91,4-7.38,2-2.19,35.66-.79,38.52-1.16,5.21.71,5.81,3.15,6.93,8.54C533.52,418.47,481.42,418.46,482.76,417.16Z" transform="translate(0.19 0)"/><path class="cls-38" d="M492.05,418a9.59,9.59,0,0,0-4.49-8.57c3.36-1.09,7.83-2,10.89-3.77,2.71.87,6.77.88,9.59,1.06a26,26,0,0,0,8.81-1.06c2.8,2,6.82,2.74,10.11,3.35a9.17,9.17,0,0,0-2.93,9C514.78,418.49,501.36,418.24,492.05,418Z" transform="translate(0.19 0)"/><path class="cls-57" d="M499.14,392.81c-6.94-7.31-4.75-25.54,6.1-27.67,6.5.71,8.52-1.71,12.86,5.51,4.2,6.37,2.59,16.33-2,22.16C511.92,396.94,503.41,396.81,499.14,392.81Z" transform="translate(0.19 0)"/><polygon class="cls-57" points="498.47 391.82 498.47 394.13 498.47 396.11 498.15 398.61 497.78 401.34 497.11 403.77 496.67 405.47 496.45 407.02 497.9 406.39 498.93 405.87 499.93 406.13 500.58 404.56 501.1 402.37 501.62 400.03 501.98 397.57 502.28 394.13 498.47 391.82"/><polygon class="cls-57" points="516.97 391.56 516.97 393.87 516.97 395.86 517.28 398.35 517.65 401.08 518.32 403.52 518.76 405.22 518.98 406.76 517.53 406.14 516.5 405.61 515.5 405.88 514.85 404.3 514.33 402.12 513.82 399.78 513.45 397.32 513.15 393.87 516.97 391.56"/><path class="cls-4" d="M516,401.48c-5.44,1.5-11.39,2.29-16.93.77-.37,1.59-1.55,4.07-3.07,4.86,7.12,2.07,15.75,2.73,22.56-.68A8.77,8.77,0,0,1,516,401.48Z" transform="translate(0.19 0)"/><path class="cls-3" d="M401.53,407.26c4.37-3.2,4.45-10,4.38-15,2.39,0,8,0,10.38,0-.19,5.19.17,12.21,5.36,15Z" transform="translate(0.19 0)"/><path class="cls-4" d="M386.38,417.25c1.35-2.1,1.74-5.38,4.06-6.72,2.1-2,36.59-.72,39.52-1,5.34.64,6,2.86,7.11,7.77C438.46,418.44,385,418.43,386.38,417.25Z" transform="translate(0.19 0)"/><path class="cls-38" d="M395.49,417.27c-.9-2.23-2.37-5.53-4.72-6.64,2.14-.82,4.74-1.82,6.88-2.61,1.35-.47,3.69-.83,4.53-2.12,1.85,1.28,5.46,1.48,7.63,1.38,3.44.2,7.86-.07,11-1.67,3.37,3,8.44,3.56,12.62,4.8a14.27,14.27,0,0,0-4.21,6.86Z" transform="translate(0.19 0)"/><path class="cls-4" d="M403,402.25c5.27,1.23,11,1.75,16.22.08.42,1.5,1.65,3.83,3.13,4.53-6.73,2.25-15,3.22-21.59.22A8.31,8.31,0,0,0,403,402.25Z" transform="translate(0.19 0)"/><path class="cls-57" d="M420,395.45c7.28-7.52,8.64-21.47,0-28.54-4.41-1.84-10.59-2.15-15-.09-6.36,5-8.17,14-6.3,21.64,1.58,3.66,5.28,7,8.66,9,3.59,1.09-5.13,9.61-2.26,15.91,1.44,7.11,7.31,4.32,12.4,4.81a42.78,42.78,0,0,0-4.63-20.62C415.1,397.48,418.05,396.26,420,395.45Z" transform="translate(0.19 0)"/><polygon class="cls-58" points="408.39 398.03 411.02 398.03 414.18 397.48 414.51 399.18 412.29 399.78 409.18 399.78 408.29 399.78 408.39 398.03"/><path class="cls-59" d="M738.88,486.91H292.94c-7.53-1.59-12.33-4.8-14.2-12.55-3.13,23,.05,26.42,23.28,27.16h413.6c13.56,1.05,20.11-5,23-14.7" transform="translate(0.19 0)"/><path class="cls-60" d="M383.83,444.4h46.38c3.05-.16,8.36.54,11.17-.86,5.75-3.31,2.86-7.06,1.76-12-1.34-4-2.53-10.59-4.64-14.22a25.64,25.64,0,0,0-3.74-2.54h-43a6.74,6.74,0,0,0-6.28,2.45c-3.12,4-4.33,12-5.57,16.85C378.74,438.63,378.54,442.65,383.83,444.4Z" transform="translate(0.19 0)"/><path class="cls-60" d="M479.83,444.89h46.39c3-.16,8.35.54,11.16-.86,5.75-3.3,2.86-7.06,1.76-12-1.34-4-2.53-10.59-4.64-14.22a26.39,26.39,0,0,0-3.74-2.53h-43a6.7,6.7,0,0,0-6.28,2.45c-3.12,4-4.33,12-5.57,16.85C474.74,439.12,474.54,443.15,479.83,444.89Z" transform="translate(0.19 0)"/><path class="cls-60" d="M582.27,444.89h46.39c3-.16,8.35.54,11.17-.86,5.74-3.3,2.85-7.06,1.75-12-1.33-4-2.52-10.59-4.63-14.22a27.59,27.59,0,0,0-3.74-2.53h-43a6.71,6.71,0,0,0-6.29,2.45c-3.12,4-4.33,12-5.57,16.85C577.19,439.12,577,443.15,582.27,444.89Z" transform="translate(0.19 0)"/><path class="cls-61" d="M389.28,440.21H426c2.41-.13,6.6.42,8.83-.68,4.54-2.62,2.26-5.58,1.39-9.52-1.06-3.16-2-8.38-3.67-11.25a21.33,21.33,0,0,0-3-2h-34a5.32,5.32,0,0,0-5,1.94c-2.46,3.18-3.42,9.51-4.4,13.32C385.26,435.65,385.1,438.83,389.28,440.21Z" transform="translate(0.19 0)"/><path class="cls-61" d="M485.3,440.91c10.76,0,25.93,0,36.67,0,2.41-.13,6.61.43,8.83-.68,4.55-2.61,2.26-5.58,1.39-9.52-1.06-3.15-2-8.37-3.66-11.25a22,22,0,0,0-3-2h-34a5.31,5.31,0,0,0-5,1.94c-2.47,3.18-3.43,9.51-4.41,13.32C481.28,436.35,481.11,439.53,485.3,440.91Z" transform="translate(0.19 0)"/><path class="cls-61" d="M587.78,441.29h36.68c2.41-.12,6.61.43,8.83-.67,4.54-2.62,2.26-5.59,1.39-9.53-1.06-3.15-2-8.37-3.67-11.24a20.13,20.13,0,0,0-3-2h-34a5.33,5.33,0,0,0-5,1.93c-2.46,3.19-3.42,9.51-4.4,13.32C583.76,436.73,583.6,439.91,587.78,441.29Z" transform="translate(0.19 0)"/><path class="cls-3" d="M349.33,427.26c5.84-4.26,5.95-13.35,5.85-20,3.19,0,10.76,0,13.87,0-.26,6.93.22,16.3,7.16,20Z" transform="translate(0.19 0)"/><path class="cls-4" d="M332.69,440.57c1.6-3.31,2.07-8.48,4.81-10.59,2.48-3.14,43.3-1.14,46.77-1.66,6.33,1,7.05,4.51,8.42,12.25C394.33,442.45,331.07,442.43,332.69,440.57Z" transform="translate(0.19 0)"/><path class="cls-38" d="M341.66,441.62A72.38,72.38,0,0,0,337.5,430a45,45,0,0,1,11.29-3.59c1.13-.37,1.51,0,2.16.85,3.56.79,8.65,1.22,12.18,2a30.27,30.27,0,0,0,7.16-.66c.91-.23,4.36-.66,4.85-1.67,3.41,1.23,7.72.94,11.21,1.87a28.85,28.85,0,0,0-4.25,12.81Z" transform="translate(0.19 0)"/><path class="cls-4" d="M352.23,420.49c6.53,1.8,13.67,2.74,20.3.92.45,1.9,1.86,4.88,3.68,5.83-8.54,2.47-18.88,3.27-27-.82A10.41,10.41,0,0,0,352.23,420.49Z" transform="translate(0.19 0)"/><path class="cls-3" d="M361.62,411.44c25.49,6.12,23-2.15,22.68-23.42Z" transform="translate(0.19 0)"/><path class="cls-57" d="M351.69,411.44c-6.88-3-7.49-12.49-7.23-19.14.05-16.54,19-25.84,32.62-17.18,11.32,6.12,7.91,22.59,1.62,31.35C372.78,414.67,360.24,415.72,351.69,411.44Z" transform="translate(0.19 0)"/><path class="cls-3" d="M442.85,429.56c5.84-4.26,5.95-13.35,5.85-20,3.2,0,10.76,0,13.87,0-.26,6.93.22,16.31,7.16,20Z" transform="translate(0.19 0)"/><path class="cls-4" d="M425,440.46c1.67-3.31,2.15-8.47,5-10.59,2.59-3.14,45.12-1.13,48.74-1.66,6.58,1,7.34,4.51,8.76,12.25,1.21,1.33-31.24,1.71-49.86,1.16C429.91,441.4,424.54,441,425,440.46Z" transform="translate(0.19 0)"/><path class="cls-38" d="M477.06,438.15a22.61,22.61,0,0,1,3.4-9.83c-13.24-2.6-35.71-3.42-48.87.6,3.38,3.51,3.85,8.93,4.55,13.56l41.18-.38C477.34,441.25,477.07,439,477.06,438.15Z" transform="translate(0.19 0)"/><path class="cls-4" d="M445.84,420.38c6.52,1.8,13.66,2.75,20.29.92.45,1.9,1.86,4.88,3.68,5.83-8.54,2.47-18.88,3.27-27-.82A10.49,10.49,0,0,0,445.84,420.38Z" transform="translate(0.19 0)"/><path class="cls-57" d="M452.48,376.25c4.6-7.56,14.86-3.48,19.83,1.63a30.59,30.59,0,0,1,5.31,18.44c-2,11.09-12.22,20.48-23.81,18.95-9.4-2.41-17.75-9.73-16.14-20.22C437,386.8,442.24,373.47,452.48,376.25Z" transform="translate(0.19 0)"/><path class="cls-62" d="M449.58,401.29c-8.36-11.22,10.69-19.14,16.19-8,2.68,5.11-1.53,10.32-6.84,10.88C455.72,404.14,451.23,404.75,449.58,401.29Z" transform="translate(0.19 0)"/><path class="cls-3" d="M545.7,426.42c6.48-4.73,6.61-14.82,6.5-22.18,3.54,0,11.94,0,15.39,0-.28,7.7.25,18.11,8,22.18Z" transform="translate(0.19 0)"/><path class="cls-4" d="M528.55,441.44c1.67-3.89,2.16-10,5-12.44,2.59-3.69,45.11-1.34,48.73-1.95,6.58,1.19,7.34,5.3,8.77,14.39C592.76,443.65,526.86,443.63,528.55,441.44Z" transform="translate(0.19 0)"/><path class="cls-38" d="M539.82,442.57c.4-5.16-2.25-11.63-5.91-14.1,4.43-1.8,10.3-3.35,14.32-6.21,3.56,1.43,8.9,1.45,12.61,1.74a27.37,27.37,0,0,0,11.57-1.74c3.68,3.25,9,4.52,13.29,5.52a17.53,17.53,0,0,0-3.85,14.74C569.7,443.46,552.06,443,539.82,442.57Z" transform="translate(0.19 0)"/><path class="cls-57" d="M548.6,412.55c-5.52-11.4-13.17-35.06,4.87-38.55,4.12-.45,8.75,1.69,12.84,1.39,4.65.58,7.62-3,10.33,2.45,1.41,5.92.28,12.76-.66,18.67-.55,6.29-4.11,12.23-8,17C561.75,413.12,554.42,415.16,548.6,412.55Z" transform="translate(0.19 0)"/><path class="cls-4" d="M570.19,417.2c-6.52,1.8-13.66,2.75-20.29.93C549.45,420,548,423,546.22,424c8.54,2.48,18.88,3.27,27-.82A10.42,10.42,0,0,1,570.19,417.2Z" transform="translate(0.19 0)"/><path class="cls-4" d="M627.58,439.57c1.66-3.83,2.14-9.83,5-12.29,2.57-3.64,44.9-1.32,48.51-1.92,6.55,1.17,7.31,5.23,8.73,14.21C691.49,441.76,625.89,441.74,627.58,439.57Z" transform="translate(0.19 0)"/><path class="cls-3" d="M647.59,413.71c-3.76-.06-8.41.9-10.33-3.28-2.29-6.93,1.09-14.65,3.6-21.12Z" transform="translate(0.19 0)"/><path class="cls-38" d="M633.39,427.16c1.75,1.83,2.56,4.78,3.2,7.15.5,2,1.5,4.55,1.78,6.55l42.06-.06c.56-4.89,2.13-9.83,3.55-14.51-2.52-1-5.65-2-8.25-2.77l-2.25-.7-28.87-.7-2.68,3.05C639.19,425.47,635.81,425.73,633.39,427.16Z" transform="translate(0.19 0)"/><path class="cls-57" d="M640.79,392.54c0-8.7,6.81-14,15.21-13.38,7.41.24,15.66,3.34,17.67,11.2,5.49,11.87,2.18,19.45,1.75,31.07.92,4.16,4.32,8.28,2.66,12.67a57.82,57.82,0,0,0-1.61,7.1c-4-.21-19.26-.36-23-.36-11.63-.9-18.56,4.58-11.64-11.08a59.81,59.81,0,0,0,.49-9.46c.34-2.42,1.36-5.61.84-8.07C638.72,406.76,640.65,399,640.79,392.54Z" transform="translate(0.19 0)"/><path class="cls-60" d="M325.65,477.61h60.7c2.25.11,7.31.13,9.18-1.48,3.11-1.72,6.14-5.39,5.26-9.15-.57-7-2.61-17.93-5.16-24.5a7.25,7.25,0,0,0-6.3-3.83H332.55c-2.65,1.11-4.95,4.27-6.29,6.7-2.7,5.21-5.34,13.07-7.48,18.49-.79,2.43-2.63,6-1.48,8.56A11,11,0,0,0,325.65,477.61Z" transform="translate(0.19 0)"/><path class="cls-60" d="M419.44,477.65c17.91,0,43.15,0,61,0,4-.21,11,.71,14.69-1.12,7.56-4.36,3.76-9.29,2.31-15.84-1.75-5.25-3.32-13.94-6.1-18.72a35.11,35.11,0,0,0-4.92-3.33H429.92c-3.07-.33-6.4.62-8.27,3.22-4.1,5.3-5.7,15.83-7.33,22.17C412.75,470.07,412.48,475.36,419.44,477.65Z" transform="translate(0.19 0)"/><path class="cls-61" d="M427.17,472c14.19,0,34.17,0,48.31,0,3.17-.17,8.7.56,11.63-.9,6-3.44,3-7.35,1.83-12.54-1.39-4.15-2.63-11-4.83-14.81a27.65,27.65,0,0,0-3.89-2.63H435.47a7,7,0,0,0-6.54,2.55c-3.25,4.19-4.52,12.52-5.81,17.54C421.88,466,421.66,470.22,427.17,472Z" transform="translate(0.19 0)"/><path class="cls-60" d="M522.69,476.1h61c4-.21,11,.71,14.69-1.12,7.55-4.36,3.76-9.29,2.31-15.85-1.76-5.24-3.33-13.93-6.1-18.71a35.7,35.7,0,0,0-4.92-3.33H533.17a8.86,8.86,0,0,0-8.27,3.22c-4.1,5.3-5.7,15.83-7.33,22.17C516,468.52,515.73,473.81,522.69,476.1Z" transform="translate(0.19 0)"/><path class="cls-61" d="M530.35,470.9h48.31c3.17-.17,8.7.56,11.63-.9,6-3.44,3-7.35,1.83-12.54-1.39-4.15-2.63-11-4.83-14.81A27.65,27.65,0,0,0,583.4,440H538.65a7,7,0,0,0-6.54,2.55c-3.25,4.19-4.52,12.52-5.81,17.54C525.06,464.89,524.84,469.08,530.35,470.9Z" transform="translate(0.19 0)"/><path class="cls-60" d="M695.2,476.05H634.5c-2.25.12-7.31.13-9.17-1.48-3.12-1.72-6.15-5.39-5.27-9.15.57-7,2.62-17.93,5.17-24.5a7.24,7.24,0,0,1,6.29-3.83c15.66,0,41.26,0,56.78,0,2.65,1.1,5,4.26,6.3,6.69,2.69,5.21,5.33,13.07,7.47,18.5.79,2.42,2.63,6,1.48,8.56A11,11,0,0,1,695.2,476.05Z" transform="translate(0.19 0)"/><path class="cls-61" d="M688.17,471.07H640.29c-1.77.09-5.76.1-7.24-1.17-2.46-1.36-4.84-4.25-4.15-7.22.45-5.54,2.06-14.14,4.08-19.33a5.73,5.73,0,0,1,5-3h44.79c2.09.87,3.9,3.36,5,5.28,2.13,4.11,4.21,10.31,5.9,14.59.62,1.92,2.08,4.73,1.17,6.75A8.67,8.67,0,0,1,688.17,471.07Z" transform="translate(0.19 0)"/><path class="cls-59" d="M725.32,487.28c5-1.23,8.65-5.31,10.38-13.83,2.66,4.55,3.71,9,2.92,13.37Z" transform="translate(0.19 0)"/><circle class="cls-63" cx="500.32" cy="172.51" r="6.63"/><circle class="cls-63" cx="518.72" cy="172.51" r="4.59"/><rect class="cls-4" x="378.07" y="219.38" width="23.82" height="7.19" rx="3.6"/><rect class="cls-4" x="377.89" y="233.01" width="31.53" height="7.19" rx="3.6"/><rect class="cls-4" x="377.89" y="247.48" width="31.53" height="7.19" rx="3.6"/><rect class="cls-4" x="413.55" y="247.48" width="31.53" height="7.19" rx="3.6"/><rect class="cls-4" x="412.16" y="233.43" width="38.96" height="7.19" rx="3.6"/><rect class="cls-4" x="409.05" y="219.38" width="22.59" height="7.19" rx="3.6"/><rect class="cls-4" x="378.07" y="306.87" width="23.82" height="7.19" rx="3.6"/><rect class="cls-4" x="377.89" y="320.49" width="31.53" height="7.19" rx="3.6"/><rect class="cls-4" x="377.89" y="334.96" width="31.53" height="7.19" rx="3.6"/><rect class="cls-4" x="413.55" y="334.96" width="31.53" height="7.19" rx="3.6"/><rect class="cls-4" x="412.16" y="320.91" width="38.96" height="7.19" rx="3.6"/><rect class="cls-4" x="409.05" y="306.87" width="22.59" height="7.19" rx="3.6"/><path class="cls-61" d="M340.86,443.09H382.3a5.06,5.06,0,0,1,4.95,3.94l4.05,17.71a5.08,5.08,0,0,1-4.94,6.21l-53,.13a5.08,5.08,0,0,1-4.69-7.06l7.53-17.83A5.09,5.09,0,0,1,340.86,443.09Z" transform="translate(0.19 0)"/><rect class="cls-64" x="403.8" y="350.94" width="46.5" height="12.35" rx="3.95"/><path class="cls-4" d="M411.64,293.28l8.56-24.57c1.12-1.72,1.84-2.9,4.13-2.62l.69,1.08v1.18l-9.25,25.39-.69,1.18-1.57.3-1.28-.5Z" transform="translate(0.19 0)"/><polygon class="cls-4" points="378.19 282.58 397.45 266.34 398.59 266.34 400.55 266.34 401.1 266.93 401.1 268.11 401.1 269.05 385.11 281.84 401.1 291.88 401.39 293.06 401.39 293.99 400.95 294.68 399.67 294.93 398.98 294.93 378.19 282.58"/><polygon class="cls-4" points="454.85 282.58 435.58 266.34 434.45 266.34 432.49 266.34 431.94 266.93 431.94 268.11 431.94 269.05 447.93 281.84 431.94 291.88 431.65 293.06 431.65 293.99 432.09 294.68 433.37 294.93 434.06 294.93 454.85 282.58"/><line class="cls-17" x1="332.85" x2="284.01"/><line class="cls-17" x1="213.06" x2="95.08"/><path class="cls-17" d="M134.78,375.38" transform="translate(0.19 0)"/><path class="cls-17" d="M132.59,376.69" transform="translate(0.19 0)"/><path class="cls-17" d="M132.26,376.91" transform="translate(0.19 0)"/><path class="cls-17" d="M135,375.71" transform="translate(0.19 0)"/><path class="cls-17" d="M135.77,373.73" transform="translate(0.19 0)"/><circle class="cls-29" cx="135.69" cy="373.19" r="2.52"/><path class="cls-37" d="M133.55,372.61c.55-1.93,3.85-2.59,6.63-1.2" transform="translate(0.19 0)"/><path class="cls-17" d="M120.17,375.32" transform="translate(0.19 0)"/><path class="cls-17" d="M122.37,376.63" transform="translate(0.19 0)"/><path class="cls-17" d="M122.69,376.85" transform="translate(0.19 0)"/><path class="cls-17" d="M120,375.65" transform="translate(0.19 0)"/><path class="cls-17" d="M119.19,373.67" transform="translate(0.19 0)"/><circle class="cls-29" cx="119.64" cy="373.13" r="2.52"/><path class="cls-37" d="M121.4,372.55c-.55-1.93-3.85-2.59-6.62-1.2" transform="translate(0.19 0)"/></svg>