<svg width="25" height="26" viewBox="0 0 25 26" fill="none" xmlns="http://www.w3.org/2000/svg">
<g clip-path="url(#clip0_581_4)">
<path d="M0.825991 1.33841C0.600446 1.35793 0.390447 1.46118 0.237505 1.62775C0.0845637 1.79432 -0.000189621 2.01209 1.18505e-06 2.238V22.9151C-0.000343213 23.1274 0.0743886 23.333 0.211036 23.4957C0.347683 23.6585 0.537483 23.7679 0.747013 23.8047L10.2042 25.4858C10.3345 25.509 10.4682 25.5034 10.5961 25.4694C10.724 25.4354 10.8428 25.3739 10.9443 25.2891C11.0457 25.2044 11.1273 25.0984 11.1833 24.9788C11.2393 24.8592 11.2684 24.7287 11.2684 24.5967V1.40373C11.2686 1.27828 11.2426 1.15417 11.1921 1.03931C11.1415 0.924457 11.0675 0.821377 10.9748 0.73665C10.8821 0.651923 10.7727 0.58741 10.6537 0.547226C10.5346 0.507042 10.4084 0.492071 10.2832 0.503266L0.825991 1.33841ZM8.79135 14.2357C8.40213 14.2357 8.08622 13.6814 8.08622 12.9996C8.08622 12.3177 8.39864 11.7643 8.79135 11.7643C9.18405 11.7643 9.4969 12.3168 9.4969 12.9996C9.4969 13.6823 9.17925 14.2357 8.79135 14.2357Z" fill="#D2D3D5"/>
<path d="M24.9999 12.516L17.6079 7.0388V9.88039H11.8652V15.1173H17.6079V17.958L24.9999 12.516Z" fill="#D2D3D5"/>
<path d="M8.08398 13.0002C8.08398 13.6821 8.39989 14.2364 8.78911 14.2364C9.17832 14.2364 9.49467 13.6821 9.49467 13.0002C9.49467 12.3183 9.17919 11.7649 8.78911 11.7649C8.39902 11.7649 8.08398 12.317 8.08398 13.0002Z" fill="white"/>
<path d="M16.9647 9.07485V2.00614C16.9647 1.81952 16.8905 1.64052 16.7584 1.50843C16.6263 1.37635 16.447 1.30197 16.26 1.30162H11.8652V2.70935H15.554V9.07485H16.9647Z" fill="#D2D3D5"/>
<path d="M11.8652 23.2906V24.6988H16.26C16.447 24.6982 16.6261 24.6238 16.7581 24.4917C16.8902 24.3597 16.9645 24.1808 16.9647 23.9943V15.8801H15.554V23.2906H11.8652Z" fill="#D2D3D5"/>
</g>
<defs>
<clipPath id="clip0_581_4">
<rect width="25" height="25" fill="white" transform="translate(0 0.5)"/>
</clipPath>
</defs>
</svg>
