<svg width="29" height="30" viewBox="0 0 29 30" fill="none" xmlns="http://www.w3.org/2000/svg">
<g clip-path="url(#clip0_581_47)">
<path d="M26.5484 2.14095C26.4602 2.13809 26.3723 2.1527 26.2898 2.18396C26.2073 2.21522 26.1319 2.26249 26.0678 2.32305L13.7727 14.5958C13.7714 14.6046 13.7714 14.6136 13.7727 14.6224C13.7727 14.6224 12.153 18.4202 12.4155 18.6867C12.678 18.9532 16.505 17.3542 16.505 17.3542L28.8 5.07698C29.6322 4.22415 27.6831 2.14095 26.5484 2.14095ZM28.3284 4.59282L16.4694 16.4302L14.6627 14.6269L26.4995 2.80277H26.5484C26.9934 2.80277 27.9857 3.57565 28.2839 4.29078C28.3313 4.38394 28.3469 4.48999 28.3284 4.59282Z" fill="#D2D3D5"/>
<path d="M20.3894 14.2049V23.7637H15.7972V27.9745L15.7349 28.0278H1.97131V1.96772H20.3894V7.14687L22.3608 5.17915V0.986083C22.3613 0.856799 22.3363 0.728666 22.2872 0.609055C22.238 0.489443 22.1657 0.380706 22.0743 0.289081C21.9829 0.197456 21.8743 0.124747 21.7547 0.0751372C21.6351 0.0255276 21.5068 -1.32349e-06 21.3773 0H0.983421C0.8539 -1.32349e-06 0.725665 0.0255276 0.606059 0.0751372C0.486453 0.124747 0.377845 0.197456 0.286467 0.289081C0.195089 0.380706 0.122746 0.489443 0.0735866 0.609055C0.0244272 0.728666 -0.000575998 0.856799 1.00691e-05 0.986083V29.0139C7.41884e-06 29.2747 0.103469 29.5248 0.287771 29.7096C0.472072 29.8944 0.722191 29.9988 0.983421 30H16.1131C16.3562 29.9986 16.5904 29.9086 16.7717 29.7468L22.0359 25.0651C22.1389 24.9728 22.2211 24.8598 22.2771 24.7335C22.333 24.6071 22.3616 24.4704 22.3608 24.3322V12.2372L20.3894 14.2049Z" fill="#D2D3D5"/>
<path d="M17.0078 14.4048C16.9432 14.4032 16.8814 14.3779 16.8343 14.3337C16.7878 14.2871 16.7617 14.224 16.7617 14.1583C16.7617 14.0925 16.7878 14.0294 16.8343 13.9828L27.7677 3.06485C27.8149 3.01952 27.8779 2.9942 27.9435 2.9942C28.009 2.9942 28.072 3.01952 28.1192 3.06485C28.1657 3.11146 28.1918 3.17454 28.1918 3.2403C28.1918 3.30606 28.1657 3.36915 28.1192 3.41576L17.2036 14.3515C17.1762 14.3729 17.1447 14.3886 17.1111 14.3978C17.0775 14.4069 17.0424 14.4093 17.0078 14.4048Z" fill="#D2D3D5"/>
</g>
<defs>
<clipPath id="clip0_581_47">
<rect width="29" height="30" fill="white"/>
</clipPath>
</defs>
</svg>
