<svg width="23" height="28" viewBox="0 0 23 28" fill="none" xmlns="http://www.w3.org/2000/svg">
<g clip-path="url(#clip0_581_10)">
<path d="M6.98526 7.08143C6.98641 6.9809 7.01648 6.88271 7.07204 6.79801V4.391L11.823 7.20834L16.6695 4.391V6.62033C16.7046 6.76959 16.7307 6.92073 16.7476 7.07297C16.7476 7.91902 14.5782 8.60855 11.8708 8.60855C9.16334 8.60855 6.98526 7.92748 6.98526 7.08143ZM19.3205 2.28856L11.8751 0L4.40367 2.3224L11.8491 6.72185L19.3205 2.28856ZM6.98092 11.1044C6.98092 12.3666 7.49518 13.577 8.41057 14.4695C9.32596 15.362 10.5675 15.8634 11.8621 15.8634C13.1566 15.8634 14.3982 15.362 15.3136 14.4695C16.229 13.577 16.7432 12.3666 16.7432 11.1044V8.61701C16.7432 8.61701 15.0858 9.78033 11.8664 9.78033C8.64702 9.78033 6.98092 8.62546 6.98092 8.62546V11.1044ZM23.0041 21.4431V28H18.917V22.2596H17.6153V28.0042H5.35821V22.3145H4.05657V28.0042H-0.0262497V21.4473C-0.0262497 21.4473 -0.273565 16.4726 6.66852 16.3457H10.4346L11.7579 18.4608L13.0856 16.3457H16.3701C16.3701 16.3457 22.5572 16.2695 23.0041 21.4431ZM12.9641 20.6859L11.8143 18.795L10.6732 20.6394L11.9055 26.181L12.9641 20.6859ZM4.87226 7.57214L4.43838 2.70312L4.0045 7.57214L4.43838 8.96811L4.87226 7.57214Z" fill="#D2D3D5"/>
</g>
<defs>
<clipPath id="clip0_581_10">
<rect width="23" height="28" fill="white"/>
</clipPath>
</defs>
</svg>
