<svg width="34" height="34" viewBox="0 0 34 34" fill="none" xmlns="http://www.w3.org/2000/svg">
<g clip-path="url(#clip0_581_287)">
<path d="M33.7693 31.7996C33.3175 31.0477 30.381 25.8336 33.6858 22.5213C33.8348 22.3772 33.937 22.1916 33.9791 21.9886C34.0211 21.7855 34.0011 21.5745 33.9216 21.383C33.8421 21.1916 33.7068 21.0285 33.5334 20.9151C33.3599 20.8017 33.1564 20.7432 32.9492 20.7472H1.03125C0.894773 20.7466 0.759514 20.7729 0.633241 20.8247C0.506967 20.8765 0.392169 20.9528 0.295437 21.0492C0.198705 21.1455 0.121944 21.2601 0.0695677 21.3862C0.0171917 21.5123 -0.00976716 21.6476 -0.00976562 21.7841V32.4631C-0.00976562 32.7394 0.0999088 33.0044 0.295137 33.1998C0.490366 33.3952 0.755154 33.5049 1.03125 33.5049H32.9492C33.2262 33.5049 33.492 33.3955 33.6888 33.2004C33.8856 33.0053 33.9975 32.7403 34.0001 32.4631C34.003 32.2217 33.9213 31.987 33.7693 31.7996ZM1.45355 31.5932V22.6392H31.481C30.875 23.7917 30.5645 25.0768 30.5775 26.3791H7.87643C7.69573 26.4 7.52902 26.4866 7.40801 26.6226C7.287 26.7585 7.22014 26.9342 7.22014 27.1162C7.22014 27.2983 7.287 27.474 7.40801 27.6099C7.52902 27.7458 7.69573 27.8325 7.87643 27.8534H30.6806C30.8863 29.145 31.2697 30.4019 31.8198 31.5883H1.44373L1.45355 31.5932Z" fill="#0A4368"/>
<path d="M14.8248 19.7987C14.9672 19.7987 16.0082 19.7987 17.1622 19.7987C21.8222 19.7987 24.6457 14.2996 24.6457 10.255C24.9305 5.77312 20.3982 4.30863 16.5385 5.10476C16.4845 5.02613 16.3863 4.86886 16.2734 4.66737C17.5817 5.0394 18.9811 4.91578 20.2041 4.32012C21.4271 3.72447 22.3878 2.6986 22.9025 1.43864C21.5918 1.05754 20.1867 1.17371 18.9562 1.76493C17.7258 2.35615 16.7566 3.38086 16.2341 4.64281C15.5256 3.35949 15.0454 1.96267 14.815 0.51474L13.882 0.667084C14.1134 2.20164 14.612 3.68367 15.3551 5.04579C11.6183 4.47572 7.49839 6.00408 7.76846 10.2894C7.78319 14.1865 10.371 19.4695 14.8248 19.7987Z" fill="#0A4368"/>
</g>
<defs>
<clipPath id="clip0_581_287">
<rect width="34" height="33" fill="white" transform="translate(0 0.5)"/>
</clipPath>
</defs>
</svg>
