<svg width="23" height="34" viewBox="0 0 23 34" fill="none" xmlns="http://www.w3.org/2000/svg">
<g clip-path="url(#clip0_581_12)">
<path d="M22.0195 2.44537H17.457C17.2745 2.23913 17.0522 2.07349 16.8041 1.95881C16.5559 1.84414 16.2872 1.7829 16.0147 1.7789H14.0243V1.43586C14.0243 0.641968 13.0628 0 11.909 0C10.7551 0 9.79358 0.641968 9.79358 1.43586V1.7789H7.808C7.53149 1.77951 7.25816 1.83912 7.00561 1.95391C6.75306 2.06869 6.5269 2.2361 6.34166 2.44537H0.985887C0.855559 2.442 0.725918 2.46571 0.60485 2.515C0.483782 2.5643 0.373813 2.63816 0.281628 2.73212C0.189442 2.82609 0.116967 2.93818 0.068606 3.06159C0.0202446 3.18499 -0.00299275 3.31713 0.000308297 3.44998V32.9905C-0.00299275 33.1233 0.0202446 33.2555 0.068606 33.3789C0.116967 33.5023 0.189442 33.6144 0.281628 33.7083C0.373813 33.8023 0.483782 33.8762 0.60485 33.9255C0.725918 33.9748 0.855559 33.9985 0.985887 33.9951H22.0195C22.1479 33.9951 22.2749 33.969 22.3931 33.9182C22.5114 33.8674 22.6185 33.7931 22.7081 33.6994C22.7977 33.6058 22.868 33.4948 22.9149 33.3731C22.9618 33.2513 22.9843 33.1213 22.9811 32.9905V3.44998C22.9812 3.18773 22.8806 2.93587 22.701 2.74815C22.5213 2.56044 22.2767 2.45177 22.0195 2.44537ZM21.0292 31.9859H1.97147V4.45949H5.90896C6.04153 4.85794 6.29319 5.2041 6.62862 5.44932C6.96404 5.69454 7.36638 5.82653 7.77916 5.82676H15.9859C16.398 5.82624 16.7996 5.69406 17.1342 5.44881C17.4688 5.20356 17.7196 4.85755 17.8513 4.45949H21.0195V31.9859H21.0292ZM4.64935 10.6146H19.1349V11.2859H4.63974L4.64935 10.6146ZM4.64935 12.962H19.1349V13.6333H4.63974L4.64935 12.962ZM4.64935 15.52H19.1349V16.1914H4.63974L4.64935 15.52ZM4.64935 17.8674H19.1349V18.5388H4.63974L4.64935 17.8674ZM16.9234 22.5327C14.683 24.3165 12.9378 26.5904 11.0724 28.7515C10.7744 29.0945 10.0436 29.5944 9.63012 29.1534C8.58685 28.0752 7.52915 26.9334 6.933 25.5318C6.4955 24.4929 8.33204 22.8267 8.81762 23.9735C9.26601 24.9533 9.8813 25.8443 10.6349 26.6051C12.3369 24.5958 14.0003 22.5719 16.0868 20.9303C17.3465 19.9109 17.9907 21.68 16.9138 22.5327H16.9234Z" fill="#D2D3D5"/>
</g>
<defs>
<clipPath id="clip0_581_12">
<rect width="23" height="34" fill="white"/>
</clipPath>
</defs>
</svg>
