<?xml version="1.0" encoding="UTF-8"?>
<!DOCTYPE svg PUBLIC "-//W3C//DTD SVG 1.1//EN" "http://www.w3.org/Graphics/SVG/1.1/DTD/svg11.dtd">
<!-- Creator: CorelDRAW 2021 (64-Bit) -->
<svg xmlns="http://www.w3.org/2000/svg" xml:space="preserve" width="482.91mm" height="159.461mm" version="1.1" style="shape-rendering:geometricPrecision; text-rendering:geometricPrecision; image-rendering:optimizeQuality; fill-rule:evenodd; clip-rule:evenodd"
viewBox="0 0 26381.8 8711.49"
 xmlns:xlink="http://www.w3.org/1999/xlink"
 xmlns:xodm="http://www.corel.com/coreldraw/odm/2003">
 <defs>
  <style type="text/css">
   <![CDATA[
    .fil0 {fill:#627A92}
    .fil1 {fill:#627A92;fill-rule:nonzero}
   ]]>
  </style>
 </defs>
 <g id="Слой_x0020_1">
  <metadata id="CorelCorpID_0Corel-Layer"/>
  <path class="fil0" d="M3387.96 6381.07l-25.33 0c-403.66,0 -371.83,-588.62 -326.63,-883.91 9.25,-60.49 41.83,-242.06 60.65,-281.31l183.12 38.53c63.21,12.64 123.32,24.47 193.25,34.73 66.27,9.72 132.01,20.58 194.63,27.01 114.35,11.74 117.12,-9.42 167.26,60.72 16.84,23.56 27.92,39.5 44.39,63.27l363.57 434.34c-48.98,73.15 -273.66,247.91 -367.29,310.3 -77.27,51.49 -129.31,83.73 -217.39,124.57 -65.96,30.59 -178.3,71.74 -270.23,71.74zm1956.79 0c-220.06,0 -524.64,-185.39 -694.96,-337.26l-137.29 -122.35c-20.22,-15.64 -30.26,-28.8 -47.99,-40.67 9.42,-14.06 15.55,-17.56 26.22,-30.77 12.28,-15.21 14.14,-19.39 29.1,-34.23 11.58,-11.48 21.11,-19.45 31.47,-31.86l55.2 -65.11c11.69,-15.04 18.94,-19.81 29.92,-33.41 94.49,-116.98 186.86,-229.36 271.37,-355.56 108.28,0 421.79,-50.79 534.58,-73.35 32.06,-6.41 53.17,-10.14 84.48,-16.84 23.91,-5.12 60.6,-16.8 90.2,-17.46 19.01,39.61 59.82,289.24 66.13,332.83 40.71,281.04 49.68,826.05 -338.43,826.05zm-1342.52 -1038.56l162.92 8.06c91.97,12.6 447.68,-1.73 540,-1.73l-191.46 239.16c-11.23,12.6 -11.14,15.69 -22.37,28.29 -29.84,33.5 -113.56,132.26 -140.8,150.5l-220.81 -260.47c-14.67,-18.42 -27.11,-33.07 -42.42,-52.57l-85.06 -111.25zm1019.55 -177.32l248.99 -409.61c8.89,-16.01 12.93,-26.15 22.09,-41.24 19.46,-32.04 77.25,-136.4 83.55,-163.42 17.88,13.1 22.55,37.18 30.76,57.89l76.16 189.82c12.61,34.83 86.56,237.51 89.39,271.57 -115.38,26.88 -427.62,84.72 -550.94,94.99zm-1697.15 -614.26c15.32,11.22 88.13,156.98 107.37,190.26 8.27,14.3 12.55,25.6 21.96,41.37l225.3 376.3c-97.49,0 -520.94,-88.66 -538.27,-88.66 1.11,-50.15 65.01,-215.17 84.17,-264.13l99.48 -255.15zm2400.07 -848.58c196.21,45.71 449.26,158.46 620.33,259.91 125.13,74.21 297.91,232.62 297.91,392.35 0,220.74 -197.52,358.61 -357.28,453.31 -121.07,71.76 -348.13,161.51 -482.69,201.24 -23.78,7.02 -60.45,14.49 -78.28,23.04 -3.38,-40.67 -95.04,-288.28 -115.81,-340.14l-135.52 -325.51 131.91 -321.33c27.27,-68.23 104.4,-278.43 119.41,-342.87zm-899.24 1481.84c-109.04,0 -202.99,12.66 -316.64,12.66 -169.22,0 -326.11,2.53 -493.97,-6.3 -165.37,-8.71 -111.59,18.54 -236.82,-168.47 -89.9,-134.25 -222.46,-370.23 -295.09,-515.49 -9.21,-18.42 -69.66,-129.67 -69.66,-139.32 0,-48.48 245.42,-459.86 310.66,-569.57 9.83,-16.54 20.54,-34.76 31.3,-51.03l126.66 -196.31c75.7,0 155.91,-12.99 234.28,-12.69 85.22,0.32 151.99,-6.32 240.66,-6.32 117.27,0 242.77,9.97 348.1,12.87 46.86,1.29 80.03,6.14 120.52,6.14 131.56,196.47 187.74,295.74 307.63,496.62 11.84,19.83 17.57,33.95 29.23,53.09 21.35,35.09 134.9,253.53 133.99,265.98 -0.6,8.3 -93.27,189.85 -105.59,214.5 -17.9,35.84 -37.56,66.38 -56.97,101.34 -80.18,144.37 -151.26,263.57 -243.69,402.24 -22.14,33.21 -46.45,65.78 -64.59,100.06zm-1836.47 -158.32c-284.55,-66.29 -911.9,-319.48 -911.9,-664.92 0,-198.81 217.87,-353.07 347.92,-431 101.32,-60.71 462.95,-221.27 563.98,-221.27 5.78,69.49 147.48,415.78 181.82,502.1 79.12,198.86 95.9,96.75 -0.34,312.65 -30.47,68.35 -136.88,343.04 -156.15,413.78 -7.48,27.47 -23.03,61.07 -25.33,88.66zm2039.11 -1456.51c50.76,1.13 342.18,51.34 410.04,64.91 26.54,5.3 114.17,20.29 134.57,30.08 -9.56,41.03 -26.51,88.72 -40.37,130.61 -21.76,65.77 -122.58,331.26 -149.61,382.33 -17.45,-12.78 -85.9,-156.45 -105.64,-191.99l-248.99 -415.94zm-1703.48 614.27c-9.68,-41.53 -34.74,-90.68 -49.83,-127.49 -31.96,-78 -95.71,-244.46 -118.48,-324.8 -7.52,-26.55 -11.65,-46.1 -21.67,-66.98 22.27,-1.86 39.85,-8.7 62,-13.99 20.13,-4.81 42.96,-8.9 68.34,-13.98 70.94,-14.18 365.14,-65.79 420.59,-67.02 -97.95,146.27 -235.52,376.05 -314.52,534.06 -13.03,26.08 -25.86,65.14 -46.44,80.21zm677.59 -797.92c24.23,-36.18 56.05,-70.34 83.2,-106.78l177.93 -214.7c30.11,-30.09 66.35,-87.54 99.84,-96.48 6.52,24.45 25.99,35.61 42.8,52.19l132.56 152.41c30.24,35.94 56.39,70 84.28,105.7 27.36,35.02 57.45,70.51 82.32,107.65l-259.68 -6.29c-35.52,0.18 -65.04,-6.75 -88.25,-6.07 -24.27,0.7 -46.79,6.26 -82.65,6.07l-272.35 6.29zm462.28 -531.94c9.34,-12.75 22.41,-19.28 36.53,-33.13 155.57,-152.66 413.25,-358.87 622.8,-428.43 101.61,-33.72 239.99,-67.26 345.57,-17.73 105.73,49.61 153.52,123.58 189.68,234.61 61.96,190.24 44.64,447.17 12.25,640.93l-54.29 262.35c-13.75,-1.15 -281.96,-59.23 -378.82,-70.8l-304.54 -37.42c-25.27,-2.92 -25.35,-3.91 -37.59,-19.4l-431.59 -530.97zm-1374.18 658.6c-1.22,-54.6 -82.33,-288.63 -82.33,-620.6 0,-224.49 72.78,-538.27 341.96,-538.27 209.71,0 374.4,93.57 523.12,192.48 67.12,44.64 222.36,165.52 282.84,223.77 15.53,14.96 25.22,27.53 41.68,40.65 20.5,16.33 30.4,21.19 45.27,43.39l-309.42 368.17c-17.35,23.29 -31.97,40.44 -49.74,64.25 -36.28,48.59 -67.48,111.57 -104.37,117.27l-689 108.91zm-240.64 -601.6c0,67.97 20.38,280.35 29.8,337.49 9.33,56.59 18.02,100.69 28.77,154.88 10.17,51.25 24.5,102.38 36.42,153.56 -32.86,0.73 -139.82,39.12 -176.58,51.4 -90.17,30.13 -234.77,91.27 -321.61,134.35l-145.25 82.72c-48.35,32.36 -87.46,59.78 -132.9,95.07 -123.09,95.6 -246.35,262.64 -246.11,440.7 0.14,97.95 29.06,183.69 77.5,261.02l47.48 66.5c62.11,73.43 164.43,162.56 249.5,212.78 26.55,15.67 45.11,27.53 71.35,42.63 137.74,79.3 327.2,156.11 480.81,203.12 22.59,6.92 70.41,23.96 95.8,24.52l-57.59 271.71c-53.62,267.59 -65.96,743.38 141.48,948.92 52.13,51.65 27.15,32.81 89.55,75.1 121.12,82.06 282.77,81.67 416.78,48.09 46.57,-11.67 85.3,-23.31 125.44,-39.21 241.21,-95.54 417.63,-240.19 606.32,-406.9 17.77,-15.7 26.47,-19.9 44.33,-37.99 15.94,-16.15 27.93,-30.8 45.86,-42.8l179.28 162.69c263.63,221.86 732.52,533.61 1069.63,307.3 291.38,-195.62 273.17,-673.21 223.04,-985.72 -8.72,-54.41 -17.68,-100.9 -27.51,-149.8l-32.26 -145.06c47.1,-3.92 299.93,-97.28 341.98,-113.97 213.63,-84.85 552.29,-273.31 645.09,-501.12 85.41,-209.65 47.3,-349.93 -87.78,-524.84 -55.75,-72.21 -167.66,-162.08 -250.61,-211.67 -146.79,-87.74 -303.3,-162.26 -467.41,-216.51 -41.09,-13.59 -140.9,-52.14 -181.27,-53.04 1.17,-52.54 88.66,-328.11 88.66,-652.27 0,-247.54 -67.05,-511.59 -256.99,-635.91 -358.25,-234.48 -878.35,134.35 -1150.37,387.43l-99.82 90.17c-56.14,-83.83 -329.12,-286.81 -411.62,-341.96 -255.86,-171.05 -647.33,-332.84 -907.28,-71.36 -20.09,20.21 -51.69,60.34 -65.88,86.1 -38.39,69.69 -65.72,130.32 -85.8,218.16 -14.83,64.85 -30.26,202.95 -30.26,273.71z"/>
  <path class="fil0" d="M-0 4291.3c22.45,-1.87 26.57,-8.7 43.16,-20.16l122.77 -79.88c55.68,-37.37 108.69,-72.48 163.36,-108.94 54.42,-36.29 110.29,-71.42 164.65,-107.66l2127.77 -1405.84c-11.9,-22.49 -205.69,-221.58 -239.06,-254.89l-528.73 -541.49c-15.7,-17.83 -19.91,-26.46 -37.98,-44.34l-486.09 -501.8c-43.03,28.81 -94.58,97.88 -134.57,137.74 -219.97,219.25 -531.42,644.9 -665.54,911.29 -9.52,18.91 -14.05,28.36 -24.37,45.3l-93.68 184.95c-28.15,63.29 -54.34,125.8 -82.6,189.71 -128.84,291.35 -256.94,771.9 -291.12,1083.06 -18.1,164.74 -37.99,328.43 -37.99,512.95z"/>
  <path class="fil0" d="M1386.85 7527.28c3.1,37.33 36.68,46.69 58.7,67.95 25.3,24.43 44.25,39.92 69.55,63.44 182.61,169.81 558.39,418.78 779.4,537.79 177.29,95.48 356.81,172.75 546.16,245.42 132.38,50.81 265.44,93.02 404.22,127.73 209.08,52.29 456.33,104.67 669.24,122.33 230.52,19.12 253.65,19.54 500.48,19.55l11.92 0c-5.26,-19.71 -33.02,-52.57 -49.4,-77.25l-1058.78 -1543.93c-17.98,-27.15 -35.04,-49.3 -54.48,-78.5l-425.64 -619.25c-18.96,-27.92 -33.22,-52.17 -53.63,-79.35l-55.21 -77.77c-33.2,22.23 -281.81,274.51 -333.92,324.68l-209.15 202.47c-112.11,98.72 -267.18,256.02 -376.62,364.3 -17.3,17.12 -27.38,21.19 -44.58,37.74l-164.81 164.49c-43.5,36.36 -184.48,190.45 -213.44,198.18z"/>
  <path class="fil0" d="M6168 2644.81c52.24,-34.99 386.32,-380.98 463.23,-442.34l751.11 -730.73c39.2,-34.52 100.18,-83.3 128.19,-125.12 -39.88,-26.7 -90.99,-92.56 -131.45,-128.19l-139.32 -126.65c-14.62,-12.91 -19.97,-13.99 -34.85,-28.47 -16.33,-15.9 -20.09,-18.6 -37.23,-32.43 -136.27,-109.98 -224.1,-185.12 -374,-284.6 -94.29,-62.57 -233.95,-152.97 -330.17,-201.77 -31.25,-15.85 -55.38,-30.95 -86.57,-46.41l-173.03 -86.6c-30.45,-15.36 -59.64,-28.34 -91.07,-41.92 -33.51,-14.47 -59.55,-25.72 -93.15,-39.83 -144.79,-60.8 -343.02,-128.43 -493.95,-170.98 -135.63,-38.24 -287.62,-72.23 -429.74,-95.87 -124.72,-20.74 -355.91,-52.46 -479.49,-52.46 5.37,20.1 33.31,62.99 44.68,81.97l1506.82 2552.4z"/>
  <path class="fil0" d="M1469.17 1105.98c26.73,0.6 63.65,14.37 92.45,21.54l643.39 167.19c249.54,61.76 491.67,129.79 739.68,191.22l1291.86 335.63c47.04,11.65 141.1,44.34 189.97,44.34l0 -1861.79c-76.86,0 -14.59,-8.97 -114.3,-0.36 -36.78,3.18 -88.11,0.48 -126.36,0.33 -181.9,-0.67 -505.68,47.19 -680.25,79.66 -143.46,26.69 -272.29,63.63 -405.35,101.26 -133.46,37.74 -256.68,84.94 -379.03,133.91 -190.82,76.37 -337.92,149.53 -513.14,246.78l-239.91 146.38c-118.4,79.24 -295.74,205.1 -399.3,297.29 -23.81,21.19 -92.65,70.27 -99.69,96.62z"/>
  <path class="fil0" d="M1253.86 7406.96l37.48 -177.83c12.92,-61.85 26.08,-120.22 38.97,-182.67 24.9,-120.57 50.61,-241.03 78.2,-365.08l233.18 -1084.01c63.2,-295.37 138.42,-618.19 196.39,-911.82 12.31,-62.34 36.38,-138.8 36.38,-204.26l-1855.47 0c-24.84,0 -12.96,19.58 -12.88,101.54l33.78 358.85c22.15,152.49 46.84,298.4 82.96,442.64 36.71,146.56 73.41,272.08 118.52,407.09 21,62.85 48.47,123.65 71.27,188.37 12.45,35.35 25.14,59.83 39.26,93.72l80.82 178.82c16.05,32.05 28.29,56.58 44.33,88.66 30.31,60.63 60.62,116.17 93.21,172.76 31.84,55.31 63.12,106.18 97.33,162.3 33.89,55.59 70.45,105.79 106.24,159.74 57.42,86.52 247.7,333.98 313.68,401.91l128.31 137.67c11.91,16.04 16.06,25.75 38.04,31.61z"/>
  <path class="fil0" d="M6224.99 6013.78c41.52,62.01 148.53,151.43 197.85,207.44l525.65 544.56c14.28,14.27 28.14,26.21 40.88,41.45 16.11,19.27 19.83,25.86 38.25,44.07 50.17,49.59 120.79,112.55 162.6,166.7 38.87,50.34 115.88,118.11 163.65,165.64 35.22,35.04 115.66,134.64 162.97,166.33 39.19,-26.24 57.26,-60.27 93.51,-96.48l359.95 -463.29c181.12,-272.71 315.99,-525.76 437.68,-828.86 78.61,-195.82 131.44,-371.62 182.88,-577.03 45.28,-180.78 71.72,-349.06 95.67,-537.6 5.14,-40.44 4.97,-75.3 10.88,-115.77l10.01 -116.65c1.1,-20.5 -0.84,-42.93 -0.24,-63.56 0.93,-31.93 6.54,-31.67 6.54,-63.12 -30.48,2.53 -281.2,166.84 -313.88,186.4 -255.51,152.87 -521.24,326.87 -775.7,478.17l-466.23 287.35c-53.35,31.54 -100.06,62.45 -152.81,94.16l-466.23 287.36c-54.72,32.74 -103.53,62.98 -156.8,96.51 -27.67,17.41 -49.5,30.43 -78.42,48.23 -28.22,17.37 -50.42,33.05 -78.66,47.99z"/>
  <path class="fil0" d="M6858.26 4297.63l1836.47 0c36.44,0 13.88,-72.04 12.63,-94.96l-52.46 -555.47c-64.15,-441.66 -228.24,-889.44 -424.55,-1285.26 -129.56,-261.23 -303.93,-510.57 -482.76,-739.45l-83.4 -100.25c-5.12,-5.53 -10.86,-12.24 -15.21,-16.45 -17.21,-16.66 5.56,-4.96 -18.14,-13.53 -13.85,59.47 -29.84,113.8 -47,174.64l-242.1 872.44c-17.48,60.14 -31.1,114.06 -47.9,173.74 -16.08,57.14 -33.6,119 -49.26,178.72l-96.4 346.88c-15.43,54.81 -33.85,118.23 -47.96,173.68 -57.23,224.95 -139.35,481.31 -195.08,704.16 -8.28,33.12 -14.79,56.28 -24.23,89.75 -7.72,27.39 -22.03,63.21 -22.66,91.33z"/>
  <path class="fil0" d="M4616.5 8705.15c104.19,0 340.95,-31.48 445.08,-48.87 373.43,-62.36 630.03,-141.01 970.73,-276.81 118.83,-47.36 227.1,-103.67 340.47,-159.8 30.72,-15.21 47.34,-26.95 78.13,-42.19 255.23,-126.3 516.61,-331.93 737.58,-509.96l133.64 -119.66c42.13,-42.51 55.01,-39.71 61.74,-64.91 -28.49,-0.63 -60.19,-12.43 -83.9,-17.42l-1296.62 -305.55c-391.97,-99.34 -813.44,-188.55 -1209.61,-284.89 -41.56,-10.1 -138.43,-38.07 -177.24,-38.07l0 1868.13z"/>
  <path class="fil0" d="M2906.68 6381.07c6.21,23.25 167.04,250.45 184.91,277.38 16.65,25.09 30.08,41.75 46.91,67.08 17.56,26.45 29.9,46.81 48.61,71.71 17.67,23.53 29.69,42.54 46.33,67.65l618 901.83c16.39,24.14 29.88,41.43 46.93,67.05l334.51 488.74c19.42,26.68 178.01,263.52 193.64,274.97l0 -1747.81c-424.36,0 -706.43,-67.17 -1041.31,-199.89l-246.25 -121.04c-72.96,-40.62 -194.72,-127.81 -232.28,-147.68z"/>
  <path class="fil0" d="M120.32 4297.63c553.83,0 1131.95,-5.24 1684.54,0.05 83.55,0.8 65.24,33.71 76.12,-164.52 21.33,-388.66 216.1,-909.3 456.65,-1227.83l106.77 -140.2c-27.65,7.38 -177.43,111.93 -220.38,140.58l-653.52 429.36c-96.32,64.22 -192.5,126.22 -290.04,191.24 -194.25,129.49 -385.2,252.58 -580.07,382.49 -50.53,33.69 -95.15,61.32 -145.65,94.99 -48.2,32.13 -418.83,270.56 -434.41,293.84z"/>
  <path class="fil0" d="M1329.85 7324.64c38.02,-25.46 344.08,-327.75 391.02,-375.24 17.04,-17.25 22.24,-20.84 40.55,-35.44 16.33,-13.03 26.71,-25.41 41.8,-40.52l113.96 -114.01c18.21,-18.43 24.8,-22.15 44.07,-38.25 71.36,-59.65 117.1,-123.76 196.32,-189.98l351.73 -344.86c31.84,-32.13 60.57,-47.42 80.76,-77.56l-124.79 -134.85c-276.28,-328.05 -469.96,-724.58 -549.15,-1148 -6.86,-36.67 -16.32,-79.09 -16.32,-116.67 -21.02,15.41 -7.84,-2.22 -14.75,29.57 -1.97,9.06 -4.89,28.59 -8.1,42.57 -7.04,30.72 -10.77,51.82 -17.82,83.5 -12.46,56.01 -23.94,107.9 -34.73,161.58 -64.69,321.87 -149.25,662.92 -212.22,984.66l-282.32 1313.51z"/>
  <path class="fil0" d="M2767.37 2442.16c23.81,-15.95 43.31,-34.19 67.83,-52.49 161.35,-120.38 277.63,-196.85 461.92,-285.33 217.8,-104.58 579.04,-212.02 831.68,-225.88 16.93,-0.93 12.4,0.76 28.36,-3.3l22.39 -9.27c-28.99,-2.41 -52.95,-13.14 -80.97,-20.34 -25.21,-6.48 -51.54,-12.81 -81.14,-20.19 -59,-14.72 -107.11,-28.38 -165.91,-43.07 -205.3,-51.28 -2251.48,-592.91 -2300.03,-594 28.34,42.32 110.41,110.16 150.48,153.49l531.86 551.02c13.83,13.83 25,23.79 38.07,37.92 15,16.21 18.32,24.88 34.63,41.36 51.95,52.51 105.62,101.18 155.35,154.95 15,16.21 18.32,24.88 34.63,41.37l155.35 154.94c29.58,31.98 72.3,89.9 115.5,118.82z"/>
  <path class="fil0" d="M4800.14 6811.69c23.8,16.53 280.92,70.2 309.09,77.2 408.31,101.49 846.49,192.89 1250.03,295.14l942.27 222.93c-9.24,-34.6 -107.55,-108.44 -146.59,-157.38 -46.54,-58.34 -99.66,-104.8 -152.63,-157.68 -14.07,-14.05 -25.23,-23.44 -37.35,-38.63l-339.44 -350.82c-28.15,-28.05 -45.06,-51.68 -72.81,-79.18 -44.91,-44.51 -117.52,-108.88 -154.08,-156.22l-306.64 -313.96 -193.54 167.42c-168.57,127.11 -190.44,132.39 -372.75,241.52l-162.85 77.79c-142.9,58.39 -209.62,84.69 -361.38,126.23 -67.41,18.45 -132.84,29.67 -201.35,45.63z"/>
  <path class="fil0" d="M6351.64 5868.13l1539.12 -949.61c146.48,-88.26 358.6,-214.93 493.66,-304.26 31.55,-20.86 196.25,-115.61 208.98,-132.98l-1741.48 0c0,69.53 -12.13,148.52 -19.49,214.81 -7.25,65.21 -23.48,139.93 -35.91,198.4 -27.45,129.08 -65.31,253.24 -110.14,364.81 -44.57,110.9 -93.58,218.7 -150.75,317.86l-137.1 217.53c-14.37,21.68 -41.15,51.99 -46.88,73.44z"/>
  <path class="fil0" d="M4616.5 1878.56c32.64,2.72 69.8,9.35 106.56,13.76 28.93,3.47 80.09,10.96 108.86,17.79 68.51,16.27 132.07,27.82 199.8,47.17 336.66,96.19 627.46,245.15 897.63,463.89 18.97,15.36 52.4,46.88 74,52.65 -29.46,-43.99 -57.73,-93.91 -85.99,-141.99l-952.92 -1611.8c-57.57,-96.19 -113.04,-193.07 -171.83,-290.46 -30.08,-49.83 -58.08,-98.69 -87.11,-147.2l-89.01 -145.3 0 1741.48z"/>
  <path class="fil0" d="M6300.98 2784.13c5.66,21.18 8.25,16.76 22.51,34.48l73.45 97.54c49.99,67.35 91.62,140.94 134.71,213.58 138.74,233.85 225.34,496.56 279.64,765.24 12.02,59.47 27.96,141.55 27.96,206.35l12.66 0c3.67,-44.06 148.15,-536.98 172.31,-631.94l86.6 -312.36c88.75,-301.76 180.01,-647.63 261.68,-947.86 45.61,-167.7 138.71,-474.48 176.01,-634.57 -27.6,18.48 -52.89,49.56 -77.52,74.46l-79.21 72.77c-48.44,48.47 -104.18,112.11 -157.23,153.08l-624.86 603.67c-43.96,44.22 -106.34,114.83 -153.06,150.9 -31.05,23.97 -136.81,126.53 -155.65,154.65z"/>
  <path class="fil0" d="M18231.69 7318.31l196.32 0 0 -994.23c12.09,17.41 13.81,37.09 18.97,57.02 58.56,226.33 130.45,462.58 186.17,687.73 21.33,86.15 47.37,164.52 67.16,249.47l227.97 0 0 -1399.52 -196.31 0 0 816.91 -221.64 -816.91 -278.64 0 0 1399.52z"/>
  <path class="fil0" d="M17136.14 7318.31l196.31 0 0 -994.23c11.32,17.84 29.39,100.77 35.76,122.56l101.32 373.63c24.84,85.15 43,163.91 67.81,248.82l67.42 249.22 227.97 0 0 -1399.52 -196.32 0 0 823.24c-0.85,-1.33 -1.75,-5.18 -2.04,-4.28l-28.27 -98.39c-9.24,-36 -18.3,-67.71 -28.92,-104.06 -10.51,-35.96 -19.51,-73.29 -28.12,-104.87l-125.5 -469.77c-5.69,-20.73 -7.18,-41.87 -27.79,-41.87l-259.64 0 0 1399.52z"/>
  <path class="fil0" d="M12867.94 7318.31l196.31 0 0 -994.23c4.7,7.41 0.95,-1.01 5.91,13.08 0.17,0.48 4.37,14.57 4.38,14.62 3.76,13.73 5.21,20.65 7.96,30.04l51.45 189.19c51.89,197.79 122.13,434.77 169.69,628.23 10.46,42.54 22.63,119.06 45.58,119.06l215.31 0 0 -1399.52 -196.31 0 0 816.91 -17.78 -45.55c-5,-19.04 -8.48,-34.53 -13.13,-50.2l-169.18 -628.74c-5.29,-21.16 -9.65,-33.79 -13.71,-49.62 -5.48,-21.32 -4.77,-42.81 -26.85,-42.81l-259.64 0 0 1399.52z"/>
  <path class="fil0" d="M24741.65 6545.72l-107.66 0 0 -424.29c227.22,0 215.31,7.62 215.31,284.97 0,77.14 -31.99,139.32 -107.66,139.32zm-329.3 772.58l221.64 0 0 -563.61c187.4,0 215.31,-7.58 215.31,240.64 0,88.12 -3.59,163.7 5.75,247.55 3.79,33.97 10.98,48.22 13.24,75.41l227.98 0c-27.4,-117.59 -19,-57.97 -19,-189.98 0,-102.52 3.22,-291.19 -34.13,-383.83 -18.76,-46.52 -61.57,-92.15 -111.52,-103.79 19.04,-25.99 139.32,-66.51 139.32,-265.98 0,-178.58 24.15,-379.66 -193.96,-439.3 -96,-26.26 -353.29,-16.65 -464.64,-16.65l0 1399.52z"/>
  <path class="fil0" d="M19536.22 7027l0 -816.91c0,-128.96 221.64,-154.03 221.64,25.33l0 759.92c0,173.43 -147.5,144.85 -185.05,115.4 -19.56,-15.35 -36.59,-50.38 -36.59,-83.73zm-227.98 -728.26l0 639.6c0,121.62 15.83,208.27 68.64,279.66 87.99,118.94 261.34,142.02 392.99,99.66 139.36,-44.84 209.62,-158.54 209.62,-322.32l0 -759.92c0,-191.89 -118.65,-329.3 -310.3,-329.3 -116.19,0 -216.25,12.19 -295.15,116.47 -49.85,65.88 -65.81,163.26 -65.81,276.15z"/>
  <path class="fil0" d="M23582.78 7008l0 -778.92c0,-143.88 151.45,-143.48 199.04,-85.05 15.52,19.06 22.6,46.69 22.6,78.72l0 804.25c0,118.5 -142.14,132.33 -196.06,69.41 -16.4,-19.13 -25.58,-53.4 -25.58,-88.41zm-221.64 -778.92l0 778.92c0,141.77 75.48,277.86 217.99,313.95 144.15,36.5 316.13,1.86 395.23,-118.69 49.83,-75.95 58.04,-179.38 58.04,-302.92 0,-123.92 8.31,-643.33 -11.91,-741.67 -12.73,-61.9 -22.17,-86.18 -52.53,-131.12 -107.43,-159.03 -413.74,-161.65 -529,-24.63 -45.19,53.73 -77.82,130.49 -77.82,226.15z"/>
  <path class="fil0" d="M21670.32 6191.09c16.73,26.38 75.77,462.2 81.97,506.97l25.69 176.96 -208.98 0 90.49 -593.43c4.27,-29.07 10.83,-52.18 10.83,-90.5zm-367.29 1127.22l202.64 0c1.02,-45.51 33.05,-193.85 38,-253.31l265.97 0 38 253.31 221.64 0c0,-52.16 -149.99,-956.93 -165.54,-1050.33l-56.1 -349.19 -322.97 0 -168.27 1047.6c-10.15,60.58 -18.38,116.48 -28.04,174.61 -5.09,30.58 -9.1,54.31 -13.72,87.6 -4.03,29.05 -11.61,54.75 -11.61,89.71z"/>
  <path class="fil0" d="M20517.78 7318.31c382.1,0 329.22,25.36 343.02,-74.94l201.59 -1324.58 -202.64 0c-0.89,39.81 -14.12,95.42 -20.1,138.22 -6.2,44.43 -12.59,89.86 -19.73,138.58 -15.58,106.19 -106.97,761.16 -124.82,837.74 -0.87,-1.37 -1.57,-5.38 -1.8,-4.53l-3.09 -9.58c-16.31,-70.47 -66.37,-454.5 -80.22,-540.38l-79.55 -560.05 -227.97 0 161.87 1047.67c9.78,60.72 17.56,118.55 27.18,175.46l26.26 176.39z"/>
  <path class="fil0" d="M10233.56 6210.09l0 816.91c0,96.82 53.54,202.05 110.19,244.45 132.32,99.02 408.15,93.04 497.91,-79.64 61.48,-118.27 50.5,-239.78 50.5,-380.12 0,-14.59 -4.41,-19 -19,-19 -233.8,0 -196.4,-21.18 -196.31,94.99 0.1,140.1 21.08,240.64 -120.32,240.64 -36.25,0 -71.81,-19.21 -86.86,-46.13 -4.86,-8.69 -4.91,-10.82 -7.18,-18.15 -16.64,-53.69 -7.28,-734.67 -7.28,-847.63 0,-144.92 221.64,-144.92 221.64,0l0 177.32 196.31 0c23.97,0 19,-14.77 19,-50.66 0,-217.87 -39.43,-436.95 -310.3,-436.95 -93.93,0 -199.56,7.68 -269.81,91.15 -40.02,47.57 -78.49,128.54 -78.49,212.81z"/>
  <path class="fil0" d="M9233 6210.09c0,131.09 -2.34,175.27 65.29,289.33 29.94,50.5 84.12,109.88 126.21,152.43 15.97,16.14 20.46,18.73 37.41,32.25l105.26 103.72c119.23,119.79 129.08,340.51 -11.21,340.51 -65.27,0 -102.76,-16.96 -116.89,-85.76 -36.74,-178.81 102.85,-161.22 -212.41,-161.22 0,133.17 -13.1,269.23 89.98,372.3 23.04,23.04 62.16,48.82 97.37,60.94 86.42,29.73 182.49,28.93 271.08,-0.13 63.49,-20.83 95.39,-46.26 135.16,-99.15 62.65,-83.3 58.66,-175 58.66,-276.97 0,-85.45 -35.55,-148.79 -68.45,-203.85 -43.06,-72.06 -76.29,-95.69 -129.47,-149.17 -132.43,-133.2 -226.37,-189.1 -226.37,-362.57 0,-143.02 151.96,-135.27 193.96,-73.64 26.74,39.24 21.36,110.49 21.36,162.3l208.98 0c0,-127.32 2.8,-208.48 -78.52,-314.11 -22.03,-28.62 -59.12,-50.98 -92.42,-65.9 -99.18,-44.45 -303.55,-40.82 -394.31,61.74 -41.38,46.75 -80.68,131.63 -80.68,216.95z"/>
  <path class="fil0" d="M25431.92 6241.75c0,210.29 106.83,342.74 255.17,466.75 104.17,87.07 193.84,195.51 167.56,342.23 -17.65,98.53 -220.09,133.33 -220.09,-61.73l0 -107.66 -189.98 0c-29.73,0 -19,38.9 -19,113.99 0,96.71 24.31,172.31 79.49,243.47 112.04,144.5 579.1,183.58 579.1,-256.14 0,-391.69 -430.62,-458.9 -430.62,-740.92 0,-173.72 158.98,-144.53 190.45,-101.79 33.25,45.14 24.86,106.34 24.86,171.45l208.98 0c0,-112.47 3.68,-227.97 -77.45,-315.17 -105.97,-113.9 -343.44,-120.67 -456.56,-28.86 -19.3,15.66 -23.33,16.36 -38.8,37.19 -25.67,34.59 -39.71,56.77 -52.77,99.21 -12.2,39.61 -20.34,88.24 -20.34,137.97z"/>
  <path class="fil0" d="M13944.49 6254.42l0 728.26c0,151.14 51.16,264.1 170.8,323.15 105.93,52.28 295.89,43.55 394.42,-55.56 36.57,-36.78 45.8,-47.83 67.27,-103.71 36.01,-93.76 26.1,-227.72 26.1,-334.86 0,-14.59 -4.4,-19 -19,-19l-189.98 0c0,189.25 31.94,335.64 -120.32,335.64 -91.82,0 -107.65,-73.18 -107.65,-151.98l0 -702.92c0,-121.14 27.21,-164.65 126.65,-164.65 124.37,0 101.32,166.37 101.32,284.97l208.97 0c0,-131.43 12.14,-291.22 -74.39,-387.89 -131.25,-146.61 -414.23,-126.54 -512.02,4.12 -45.79,61.18 -72.18,140.77 -72.18,244.45z"/>
  <polygon class="fil0" points="14976.71,7318.31 15578.31,7318.31 15578.31,7115.66 15198.35,7115.66 15198.35,6710.37 15502.32,6710.37 15502.32,6507.72 15198.35,6507.72 15198.35,6121.44 15578.31,6121.44 15578.31,5918.79 14976.71,5918.79 "/>
  <polygon class="fil0" points="11886.38,7318.31 12487.98,7318.31 12487.98,7115.66 12108.02,7115.66 12108.02,6710.37 12411.99,6710.37 12411.99,6507.72 12108.02,6507.72 12108.02,6121.44 12487.98,6121.44 12487.98,5918.79 11886.38,5918.79 "/>
  <path class="fil0" d="M22354.25 6121.44l227.97 0 0 1196.87 208.98 0c14.59,0 19,-4.41 19,-19l0 -1177.87 227.97 0 0 -202.65 -683.92 0 0 202.65z"/>
  <path class="fil0" d="M16509.21 5937.79l0 1380.52 227.97 0 0 -1380.52c0,-14.59 -4.4,-19 -19,-19l-189.98 0c-14.59,0 -19,4.41 -19,19z"/>
  <polygon class="fil0" points="11265.78,7318.31 11487.42,7318.31 11487.42,5918.79 11265.78,5918.79 "/>
  <path class="fil0" d="M4052.89 4360.96c0,336.76 438.6,416.33 572.24,141.61 144.09,-296.22 -222.81,-592.03 -479.67,-353.01l-9.66 9.34c-48.45,50.12 -82.91,128.97 -82.91,202.06z"/>
  <polygon class="fil0" points="2906.68,6381.07 2906.68,6374.74 2899.29,6380.01 "/>
  <polygon class="fil1" points="9302.66,5438.25 10544.28,5438.25 10544.28,4955.39 9691.45,4955.39 9691.45,4170.73 10464.01,4170.73 10464.01,3695.91 9691.45,3695.91 9691.45,3003.8 10516.68,3003.8 10516.68,2528.99 9302.66,2528.99 "/>
  <polygon class="fil1" points="10830.23,5438.25 11196.44,5438.25 11196.44,3023.92 11898.77,5438.25 12433.04,5438.25 12433.04,2528.99 12071.84,2528.99 12071.84,4818.58 11392.09,2528.99 10830.23,2528.99 "/>
  <path class="fil1" d="M14394.55 3448.53c-2.51,-149.49 -10.03,-367.97 -130.43,-578.79 -142.97,-249.14 -383.77,-348.8 -617.05,-348.8 -549.32,0 -950.65,525.12 -950.65,1506.38 0,291.31 37.62,732.11 240.79,1034.92 142.98,214.65 356.19,367.97 770.06,367.97 363.71,0 549.32,-95.83 662.2,-153.32l0 -1383.72 -739.95 0 0 459.96 351.16 0 0 582.62c-42.64,19.16 -107.86,53.66 -295.98,53.66 -215.72,0 -336.12,-84.32 -426.42,-237.64 -132.94,-218.49 -150.5,-555.79 -150.5,-743.61 0,-425.47 87.79,-1054.08 529.25,-1054.08 85.28,0 228.26,30.66 303.51,214.65 45.15,107.32 47.66,206.99 50.17,279.81l403.84 0z"/>
  <polygon class="fil1" points="14703.07,5438.25 15091.86,5438.25 15091.86,2520.94 14703.07,2520.94 "/>
  <polygon class="fil1" points="15430.48,5438.25 15796.7,5438.25 15796.7,3023.92 16499.03,5438.25 17033.3,5438.25 17033.3,2528.99 16672.1,2528.99 16672.1,4818.58 15992.35,2528.99 15430.48,2528.99 "/>
  <polygon class="fil1" points="17386.97,5438.25 18628.59,5438.25 18628.59,4955.39 17775.76,4955.39 17775.76,4170.73 18548.32,4170.73 18548.32,3695.91 17775.76,3695.91 17775.76,3003.8 18600.99,3003.8 18600.99,2528.99 17386.97,2528.99 "/>
  <polygon class="fil1" points="18919.56,5438.25 20161.17,5438.25 20161.17,4955.39 19308.35,4955.39 19308.35,4170.73 20080.91,4170.73 20080.91,3695.91 19308.35,3695.91 19308.35,3003.8 20133.58,3003.8 20133.58,2528.99 18919.56,2528.99 "/>
  <path class="fil1" d="M20417.02 5438.25l396.31 0 0 -1174.97 341.13 0c65.22,0 160.53,0 195.65,164.98 25.08,112.67 80.26,849.04 97.82,1009.99l428.92 0c-20.07,-48.29 -35.12,-80.48 -55.18,-209.24 -12.54,-80.48 -27.59,-221.32 -55.18,-563.34 -32.61,-378.25 -52.68,-627.73 -326.08,-667.97 87.79,-40.24 378.75,-169 378.75,-712.23 0,-189.12 -45.15,-402.38 -158.02,-559.32 -145.48,-201.19 -348.65,-201.19 -549.32,-197.17l-694.81 0 0 2909.26zm383.78 -2450.55l260.86 0c122.9,0 195.64,0 255.85,68.41 35.12,36.21 95.31,128.77 95.31,325.93 0,205.22 -72.74,305.81 -100.33,338.01 -62.71,80.48 -153.01,80.48 -198.16,80.48l-313.54 0 0 -812.83z"/>
  <polygon class="fil1" points="22090.07,5438.25 22478.86,5438.25 22478.86,2520.94 22090.07,2520.94 "/>
  <polygon class="fil1" points="22817.48,5438.25 23183.7,5438.25 23183.7,3023.92 23886.03,5438.25 24420.3,5438.25 24420.3,2528.99 24059.1,2528.99 24059.1,4818.58 23379.35,2528.99 22817.48,2528.99 "/>
  <path class="fil1" d="M26381.8 3448.53c-2.51,-149.49 -10.04,-367.97 -130.43,-578.79 -142.97,-249.14 -383.77,-348.8 -617.05,-348.8 -549.32,0 -950.65,525.12 -950.65,1506.38 0,291.31 37.62,732.11 240.8,1034.92 142.98,214.65 356.18,367.97 770.06,367.97 363.71,0 549.32,-95.83 662.2,-153.32l0 -1383.72 -739.95 0 0 459.96 351.16 0 0 582.62c-42.64,19.16 -107.86,53.66 -295.98,53.66 -215.72,0 -336.12,-84.32 -426.42,-237.64 -132.94,-218.49 -150.5,-555.79 -150.5,-743.61 0,-425.47 87.79,-1054.08 529.25,-1054.08 85.28,0 228.26,30.66 303.51,214.65 45.15,107.32 47.66,206.99 50.17,279.81l403.84 0z"/>
 </g>
</svg>
