<svg width="58" height="67" viewBox="0 0 58 67" fill="none" xmlns="http://www.w3.org/2000/svg">
<path d="M48.4225 57.8393C45.5504 60.4902 42.045 62.5467 38.1589 63.8588C34.2728 65.1716 30.1037 65.7072 25.9533 65.4279C21.8029 65.1485 17.7751 64.0608 14.1613 62.2428C10.5475 60.4255 7.43819 57.924 5.05844 54.9195C7.72236 54.7383 10.292 53.9719 12.5321 52.6906C12.5321 52.6906 10.8431 53.0844 8.72349 53.3741C6.09276 52.1751 3.88748 50.3626 2.34893 48.135C0.810366 45.9074 -0.00219121 43.3504 4.43795e-06 40.7438V0C8.04385 7.63977 13.6873 16.9909 16.3745 27.1328C16.594 27.9575 16.8052 28.7896 16.9994 29.6366C16.9994 29.6366 17.0838 27.6455 17.0585 25.7509C19.1259 21.5639 22.0807 17.7615 25.7651 14.5471C26.7752 13.6542 27.8379 12.8085 28.9488 12.0136C28.8812 12.5931 27.3274 29.3171 26.9812 32.9799C25.4864 33.3291 24.0086 33.6412 24.0086 33.6412C24.9791 33.686 25.9516 33.686 26.922 33.6412C27.3021 33.6412 27.699 33.6412 28.1212 33.6412C30.2877 33.6432 32.3648 34.4017 33.896 35.7503C35.4272 37.0987 36.2873 38.9269 36.2873 40.833C36.2873 46.4349 30.2831 47.7351 30.1986 47.7871L27.9523 48.3146C28.7968 46.5389 29.2697 45.3427 28.3914 43.9311C27.913 43.1578 27.105 42.5832 26.1451 42.3338C25.7924 42.2376 25.4249 42.19 25.0557 42.1926C24.212 42.1887 23.3906 42.4308 22.7198 42.8811C22.0491 43.3314 21.5669 43.9646 21.3485 44.6815C20.6008 47.6701 20.9712 50.7912 22.4045 53.5795C23.8378 56.3675 26.2572 58.6736 29.3018 60.1536C32.3464 61.6329 35.8531 62.2072 39.2989 61.7904C42.7447 61.3728 45.9448 59.9872 48.4225 57.8393Z" fill="#0A4368"/>
<path d="M30.4529 14.4654H58V40.7736C58 47.3933 55.1633 53.7697 50.0559 58.6306C44.9485 63.4918 37.9456 66.4807 30.4445 67L28.8906 49.5108C31.3933 49.3409 33.7309 48.3462 35.4361 46.7257C37.1413 45.1052 38.0886 42.9782 38.0886 40.7699C38.0886 38.5616 37.1413 36.4346 35.4361 34.8141C33.7309 33.1935 31.3933 32.1989 28.8906 32.029L30.4529 14.4654Z" fill="#FA5E37"/>
</svg>
