<svg width="142" height="139" viewBox="0 0 142 139" fill="none" xmlns="http://www.w3.org/2000/svg">
<path fill-rule="evenodd" clip-rule="evenodd" d="M70.924 22.96C58.2138 22.96 46.0233 27.894 37.0367 36.6762C28.0491 45.4586 23 57.3709 23 69.7898C23 82.2086 28.0493 94.122 37.0367 102.903C46.0243 111.686 58.215 116.62 70.924 116.62C83.633 116.62 95.8247 111.686 104.811 102.903C113.799 94.121 118.848 82.2086 118.848 69.7898C118.848 57.3709 113.799 45.4576 104.811 36.6762C95.8237 27.8938 83.633 22.96 70.924 22.96ZM79.5525 51.3241C80.188 51.2962 80.7903 51.6028 81.131 52.127C81.4717 52.652 81.4995 53.3149 81.2031 53.8646L63.8105 87.2874C63.366 88.1415 62.297 88.4822 61.4229 88.0478C60.5489 87.6134 60.201 86.5697 60.6448 85.7155L78.0373 52.2927C78.3234 51.7235 78.9043 51.3519 79.5525 51.3241ZM54.9601 51.3272C55.6923 51.3117 56.3587 51.7376 56.6393 52.398C56.919 53.0593 56.7549 53.8205 56.2256 54.3153L40.1192 69.79L56.2256 85.2646C56.5711 85.5852 56.77 86.0281 56.7779 86.4927C56.7859 86.9581 56.6028 87.4072 56.2684 87.7386C55.9348 88.0708 55.4784 88.2574 55.0021 88.2574C54.5259 88.2566 54.0703 88.07 53.7367 87.7378L36.3441 71.0264C36.0049 70.7004 35.8132 70.2552 35.8132 69.7898C35.8132 69.3252 36.0041 68.8792 36.3433 68.5532L53.7359 51.8418C54.06 51.522 54.4998 51.3372 54.9601 51.3272ZM86.8331 51.3272C87.3133 51.3233 87.7744 51.5084 88.112 51.8421L105.505 68.5535C105.844 68.8795 106.035 69.3255 106.035 69.7901C106.035 70.2555 105.845 70.7007 105.505 71.0267L88.1128 87.7381C87.7792 88.0703 87.3228 88.2569 86.8465 88.2577C86.3703 88.2577 85.9139 88.0711 85.5803 87.7389C85.2459 87.4075 85.0628 86.9584 85.0707 86.493C85.0787 86.0284 85.2776 85.5855 85.6231 85.2649L101.73 69.7902L85.6231 54.3156C85.1017 53.8277 84.9337 53.0797 85.1999 52.4239C85.4654 51.768 86.1112 51.3341 86.8331 51.3272Z" fill="white"/>
</svg>
