<svg width="114" height="115" viewBox="0 0 114 115" fill="none" xmlns="http://www.w3.org/2000/svg">
<g clip-path="url(#clip0_1363_1716)">
<path d="M16.339 35.4578H18.049V45.9997L28.309 35.6497H57.5695C60.2293 35.6497 62.5093 33.3497 62.5093 30.6666V4.98214C62.6995 2.29902 60.4195 -0.000976562 57.5695 -0.000976562H16.339C13.489 -0.000976562 11.209 2.29902 11.209 4.98214V30.4744C11.209 33.3494 13.489 35.4575 16.339 35.4575V35.4578ZM52.819 13.4172C55.099 13.4172 56.9992 15.3335 56.9992 17.8253C56.9992 20.3172 55.099 22.2335 52.6294 22.2335C50.1592 22.2335 48.2596 20.3166 48.2596 17.8253C48.4492 15.3335 50.3494 13.4172 52.819 13.4172ZM36.859 13.4172C39.3292 13.4172 41.2288 15.3341 41.2288 17.8253C41.2288 20.3172 39.3286 22.2335 36.859 22.2335C34.3888 22.2335 32.4892 20.3166 32.4892 17.8253C32.6794 15.3335 34.579 13.4172 36.859 13.4172ZM21.0892 13.4172C23.5594 13.4172 25.459 15.3341 25.459 17.8253C25.459 20.3172 23.5588 22.2335 21.0892 22.2335C18.619 22.2335 16.7194 20.3166 16.7194 17.8253C16.7194 15.3335 18.8092 13.4172 21.0892 13.4172Z" fill="white"/>
<path d="M98.2301 9.19995H66.3101V21.6581C67.8299 22.2331 68.7803 23.7662 68.7803 25.3C68.7803 27.025 67.8306 28.3668 66.3101 28.9418V30.2837C66.3101 35.0756 62.3201 39.1006 57.5699 39.1006H56.6201C57.3803 40.4425 58.9001 41.4006 60.4199 41.4006H87.0193L96.3296 50.7925V41.4006H98.0396C100.51 41.4006 102.6 39.2925 102.6 36.8006V13.8006C102.79 11.3087 100.699 9.20061 98.2298 9.20061L98.2301 9.19995ZM79.4201 29.5172C77.1401 29.5172 75.4301 27.7922 75.4301 25.4922C75.4301 23.3841 77.1401 21.4672 79.4201 21.4672C81.7001 21.4672 83.4101 23.1922 83.4101 25.4922C83.2199 27.6003 81.5099 29.5172 79.4201 29.5172ZM93.6701 29.5172C91.3901 29.5172 89.6801 27.7922 89.6801 25.4922C89.6801 23.3841 91.3901 21.4672 93.6701 21.4672C95.9501 21.4672 97.6601 23.1922 97.6601 25.4922C97.6601 27.6003 95.9501 29.5172 93.6701 29.5172Z" fill="white"/>
<path d="M32.1102 71.875C22.0397 71.875 13.6796 78.775 11.3996 88.1669C11.0198 90.0838 12.3494 92 14.4398 92H49.7798C51.68 92 53.1998 90.0831 52.82 88.1669C50.5394 78.775 42.1796 71.875 32.1095 71.875H32.1102Z" fill="white"/>
<path d="M41.7999 57.1173C41.7999 62.5155 37.4612 66.8923 32.1099 66.8923C26.7579 66.8923 22.4199 62.5155 22.4199 57.1173C22.4199 51.7184 26.7579 47.3423 32.1099 47.3423C37.4612 47.3423 41.7999 51.7184 41.7999 57.1173Z" fill="white"/>
<path d="M81.7 71.875C71.6302 71.875 63.2695 78.775 60.9895 88.3578C60.6097 90.2747 61.9392 92.1909 64.0297 92.1909H99.3697C101.27 92.1909 102.79 90.274 102.41 88.3578C100.129 78.7747 91.7695 71.875 81.6993 71.875H81.7Z" fill="white"/>
<path d="M91.3898 57.1173C91.3898 62.5155 87.0511 66.8923 81.6998 66.8923C76.3478 66.8923 72.0098 62.5155 72.0098 57.1173C72.0098 51.7184 76.3478 47.3423 81.6998 47.3423C87.0511 47.3423 91.3898 51.7184 91.3898 57.1173Z" fill="white"/>
</g>
<defs>
<clipPath id="clip0_1363_1716">
<rect width="114" height="115" fill="white"/>
</clipPath>
</defs>
</svg>
