<svg width="138" height="131" viewBox="0 0 138 131" fill="none" xmlns="http://www.w3.org/2000/svg">
<path fill-rule="evenodd" clip-rule="evenodd" d="M34.894 4.41101H89.2917C96.8893 4.41101 103.106 10.3126 103.106 17.5221V37.1084C101.278 36.6969 99.3706 36.4732 97.4098 36.4732C83.897 36.4732 72.9444 46.8706 72.9444 59.6976C72.9444 66.7527 76.2595 73.0688 81.4893 77.3293V94.7094H34.8966C27.2989 94.7094 21.085 88.8079 21.085 81.5984V17.5225C21.085 10.3102 27.3019 4.41148 34.8966 4.41148L34.894 4.41101ZM108.375 80.464V100.387L97.409 92.8167L86.4429 100.387V80.464C89.7419 82.0357 93.4646 82.9225 97.409 82.9225C101.353 82.9225 105.076 82.0358 108.375 80.464ZM97.409 41.179C108.183 41.179 116.92 49.4696 116.92 59.6973C116.92 69.925 108.186 78.2187 97.409 78.2187C86.6348 78.2187 77.9011 69.928 77.9011 59.6973C77.9011 49.4696 86.6348 41.179 97.409 41.179ZM40.1627 30.8255C38.795 30.8255 37.6854 29.7721 37.6854 28.4738C37.6854 27.1756 38.7951 26.1222 40.1627 26.1222H73.4857C74.8534 26.1222 75.963 27.1756 75.963 28.4738C75.963 29.7721 74.8533 30.8255 73.4857 30.8255H40.1627ZM40.1627 72.7286C38.795 72.7286 37.6854 71.6752 37.6854 70.377C37.6854 69.0788 38.7951 68.0254 40.1627 68.0254H60.0978C61.4654 68.0254 62.5751 69.0788 62.5751 70.377C62.5751 71.6752 61.4654 72.7286 60.0978 72.7286H40.1627ZM40.1627 51.7761C38.795 51.7761 37.6854 50.7227 37.6854 49.4245C37.6854 48.1263 38.7951 47.0728 40.1627 47.0728H60.0978C61.4654 47.0728 62.5751 48.1263 62.5751 49.4245C62.5751 50.7227 61.4654 51.7761 60.0978 51.7761H40.1627Z" fill="white"/>
</svg>
