<svg width="96" height="97" viewBox="0 0 96 97" fill="none" xmlns="http://www.w3.org/2000/svg">
<path fill-rule="evenodd" clip-rule="evenodd" d="M13.894 0.411011H68.2917C75.8894 0.411011 82.1063 6.31256 82.1063 13.5221V33.1084C80.2781 32.6969 78.3706 32.4732 76.4098 32.4732C62.897 32.4732 51.9444 42.8706 51.9444 55.6976C51.9444 62.7527 55.2595 69.0688 60.4893 73.3293V90.7094H13.8966C6.2989 90.7094 0.0849609 84.8079 0.0849609 77.5984V13.5225C0.0849609 6.31022 6.30186 0.411479 13.8966 0.411479L13.894 0.411011ZM87.3751 76.464V96.3872L76.409 88.8167L65.4429 96.3872V76.464C68.7419 78.0357 72.4646 78.9225 76.409 78.9225C80.3535 78.9225 84.0761 78.0358 87.3751 76.464ZM76.409 37.179C87.1833 37.179 95.92 45.4696 95.92 55.6973C95.92 65.925 87.1864 74.2187 76.409 74.2187C65.6348 74.2187 56.9011 65.928 56.9011 55.6973C56.9011 45.4696 65.6348 37.179 76.409 37.179ZM19.1627 26.8255C17.795 26.8255 16.6854 25.7721 16.6854 24.4738C16.6854 23.1756 17.7951 22.1222 19.1627 22.1222H52.4857C53.8534 22.1222 54.963 23.1756 54.963 24.4738C54.963 25.7721 53.8533 26.8255 52.4857 26.8255H19.1627ZM19.1627 68.7286C17.795 68.7286 16.6854 67.6752 16.6854 66.377C16.6854 65.0788 17.7951 64.0254 19.1627 64.0254H39.0978C40.4654 64.0254 41.5751 65.0788 41.5751 66.377C41.5751 67.6752 40.4654 68.7286 39.0978 68.7286H19.1627ZM19.1627 47.7761C17.795 47.7761 16.6854 46.7227 16.6854 45.4245C16.6854 44.1263 17.7951 43.0728 19.1627 43.0728H39.0978C40.4654 43.0728 41.5751 44.1263 41.5751 45.4245C41.5751 46.7227 40.4654 47.7761 39.0978 47.7761H19.1627Z" fill="white"/>
</svg>
